<?xml version="1.0" standalone="no"?>
<!DOCTYPE svg PUBLIC "-//W3C//DTD SVG 20010904//EN"
 "http://www.w3.org/TR/2001/REC-SVG-20010904/DTD/svg10.dtd">
<svg version="1.0" xmlns="http://www.w3.org/2000/svg"
 width="1280.000000pt" height="1280.000000pt" viewBox="0 0 1280.000000 1280.000000"
 preserveAspectRatio="xMidYMid meet">
<g transform="translate(0.000000,1280.000000) scale(0.100000,-0.100000)"
fill="#000000" stroke="none">
<path d="M4753 12140 c-66 -14 -108 -38 -153 -87 -69 -74 -97 -163 -106 -333
-19 -344 114 -905 401 -1689 47 -129 85 -241 85 -249 0 -13 -55 -81 -138 -170
-17 -19 -36 -31 -42 -27 -5 3 -53 72 -106 152 -535 816 -1011 1344 -1359 1508
-113 54 -178 69 -269 63 -147 -10 -263 -98 -349 -266 -156 -302 -216 -751
-204 -1519 l6 -382 -32 -6 c-18 -2 -117 -16 -222 -30 -891 -119 -1479 -292
-1660 -486 -228 -247 103 -517 1003 -819 114 -38 347 -112 517 -165 171 -53
371 -117 446 -141 153 -50 144 -41 155 -157 l7 -68 -209 8 c-297 11 -853 8
-1024 -6 -606 -50 -994 -181 -1153 -389 -275 -361 60 -924 993 -1668 94 -74
170 -139 170 -145 0 -5 -40 -87 -88 -182 -249 -489 -369 -830 -379 -1083 -9
-196 31 -291 149 -354 231 -123 799 85 1600 588 81 51 151 92 156 92 12 0 462
-254 490 -277 l22 -18 -106 -140 c-293 -389 -507 -759 -592 -1025 -44 -138
-55 -203 -56 -315 -1 -283 159 -454 494 -529 84 -18 127 -21 375 -21 216 1
308 5 405 19 69 9 150 20 180 23 l55 5 44 -98 c80 -179 221 -451 315 -608 496
-826 926 -880 1230 -154 121 289 228 721 310 1247 14 91 31 168 37 172 7 4 57
24 112 44 l100 37 101 -37 c55 -20 106 -42 113 -49 6 -6 23 -87 38 -181 156
-998 382 -1571 674 -1712 70 -33 177 -38 258 -10 177 62 394 291 604 639 75
123 268 500 333 647 l28 64 62 -6 c33 -4 111 -14 171 -22 148 -22 553 -31 670
-16 213 28 355 84 458 181 107 99 147 202 147 370 -1 314 -218 764 -639 1323
-61 81 -111 152 -111 157 0 5 19 19 42 31 22 11 135 75 249 140 114 65 212
119 218 119 6 0 43 -21 83 -47 663 -426 1196 -663 1493 -665 189 -1 290 71
324 230 50 236 -81 671 -375 1241 -46 89 -84 170 -84 180 0 9 44 50 98 91 415
318 787 684 964 949 78 118 113 183 154 291 25 67 28 88 28 200 1 126 1 126
-36 202 -119 240 -465 390 -1040 453 -327 35 -693 43 -1129 24 -138 -6 -255
-7 -260 -2 -10 10 10 148 25 166 6 8 101 42 211 77 465 145 592 185 820 259
546 178 892 346 1048 510 66 69 87 111 87 176 0 93 -55 166 -184 246 -254 156
-844 304 -1604 402 -101 13 -187 28 -191 33 -5 5 -4 131 2 284 22 580 -26
1119 -129 1438 -63 194 -175 352 -291 408 -72 36 -180 43 -273 20 -361 -92
-889 -647 -1495 -1569 -53 -81 -100 -147 -104 -147 -7 0 -110 112 -169 182
-12 14 -5 41 59 210 203 544 349 1052 400 1393 25 164 29 398 10 490 -71 326
-321 377 -751 153 -259 -135 -662 -432 -1000 -737 -47 -43 -90 -81 -97 -84 -7
-5 -58 32 -130 96 -636 557 -1085 836 -1385 860 -34 3 -82 2 -105 -3z m244
-46 c246 -70 605 -299 1028 -653 196 -164 305 -265 305 -280 0 -23 -228 -234
-243 -224 -7 3 -55 41 -107 83 -347 279 -652 466 -850 520 -91 24 -215 27
-268 5 -87 -37 -150 -132 -173 -261 -16 -93 -5 -350 21 -489 11 -60 23 -132
26 -160 5 -49 5 -49 -10 -24 -18 32 -97 305 -132 462 -115 506 -109 822 20
965 83 92 198 109 383 56z m3036 3 c80 -33 134 -111 163 -234 23 -96 21 -321
-5 -490 -41 -269 -184 -814 -207 -790 -3 3 6 67 20 144 63 340 60 556 -9 694
-31 59 -93 113 -151 129 -65 18 -203 7 -289 -23 -210 -73 -522 -271 -844 -535
-45 -37 -79 -58 -87 -54 -23 13 -234 213 -234 222 0 12 202 192 365 325 457
374 809 583 1060 630 83 16 152 10 218 -18z m-2913 -578 c143 -39 365 -159
580 -312 116 -83 370 -285 370 -295 0 -4 -49 -56 -109 -116 l-109 -109 -153
102 c-328 218 -555 293 -694 227 -62 -29 -87 -55 -119 -126 -50 -108 -53 -303
-11 -550 8 -47 15 -96 14 -110 -1 -42 -31 38 -72 190 -128 474 -152 824 -69
986 25 49 77 98 122 118 50 22 162 20 250 -5z m2721 11 c167 -47 227 -308 159
-704 -33 -195 -121 -545 -148 -592 -10 -17 -11 -16 -12 11 0 17 7 68 16 115
25 138 30 362 10 452 -69 309 -350 302 -836 -23 l-151 -100 -109 102 c-61 56
-110 108 -110 115 0 24 267 236 470 371 205 137 384 225 525 256 38 9 150 7
186 -3z m-4653 -251 c75 -18 220 -91 312 -157 315 -226 741 -733 1175 -1397
103 -156 113 -175 97 -175 -6 0 -61 71 -123 158 -455 636 -822 998 -1102 1083
-91 28 -201 24 -272 -11 -142 -68 -256 -276 -313 -570 -44 -224 -60 -394 -69
-757 -3 -150 -7 -273 -7 -273 -1 0 -57 -7 -126 -15 -167 -20 -206 -19 -214 2
-4 9 -10 175 -13 367 -14 839 75 1361 275 1612 95 119 235 168 380 133z m6585
-17 c64 -28 151 -113 197 -192 138 -233 209 -616 226 -1210 7 -254 -9 -699
-25 -709 -14 -9 -320 24 -331 35 -4 5 -10 153 -13 329 -7 385 -27 571 -87 806
-59 232 -162 395 -290 460 -62 31 -176 37 -256 14 -285 -82 -650 -436 -1101
-1067 -119 -165 -143 -194 -143 -168 0 13 169 271 298 455 259 368 486 648
697 860 215 216 416 356 575 400 75 20 191 15 253 -13z m-3280 -236 c59 -54
107 -105 107 -112 0 -14 -213 -207 -234 -212 -7 -2 -44 25 -82 59 -38 34 -91
81 -118 106 l-49 43 24 26 c69 75 221 204 232 198 6 -4 60 -53 120 -108z
m-1258 -26 c44 -11 130 -45 192 -76 120 -59 381 -227 390 -251 4 -10 -31 -52
-98 -119 -57 -57 -107 -104 -112 -104 -4 0 -46 18 -93 41 -91 43 -215 79 -273
79 -95 0 -172 -52 -212 -143 -31 -71 -38 -271 -15 -436 9 -63 14 -117 11 -119
-9 -9 -34 65 -69 204 -72 285 -90 415 -84 603 3 127 6 140 35 202 60 129 155
163 328 119z m2494 -11 c159 -89 173 -406 41 -917 -22 -84 -47 -165 -56 -180
-15 -27 -15 -26 -10 23 3 28 10 91 17 140 15 115 6 294 -17 359 -23 67 -86
128 -147 145 -86 24 -219 -5 -369 -80 -32 -16 -63 -29 -70 -29 -7 0 -58 48
-112 106 -81 87 -98 109 -89 123 19 30 257 182 378 242 204 100 340 121 434
68z m-1503 -206 c54 -48 103 -92 107 -98 9 -12 -189 -205 -211 -205 -19 0
-242 178 -242 194 0 7 47 59 105 115 89 87 107 100 123 92 11 -6 64 -50 118
-98z m518 1 c58 -55 106 -105 106 -111 0 -14 -227 -193 -246 -193 -18 0 -213
179 -214 196 0 13 230 216 241 212 4 -2 55 -48 113 -104z m-3203 -14 c196 -60
450 -272 733 -610 221 -263 487 -633 468 -652 -7 -7 -32 17 -79 78 -413 530
-711 774 -946 774 -94 0 -152 -24 -218 -90 -140 -139 -220 -419 -250 -870 -6
-96 -14 -178 -18 -182 -9 -10 -289 -35 -302 -27 -6 3 -13 42 -16 85 -7 105 13
537 32 694 57 466 181 735 372 805 55 20 151 18 224 -5z m5905 -13 c236 -120
364 -590 364 -1337 0 -173 -3 -229 -12 -232 -21 -8 -292 22 -302 32 -6 6 -13
73 -17 150 -28 538 -140 864 -330 959 -246 123 -592 -108 -1053 -703 -69 -89
-102 -124 -109 -117 -12 12 69 137 233 356 384 514 699 812 954 901 95 33 197
30 272 -9z m-3463 -205 c59 -47 107 -93 107 -101 0 -19 -170 -191 -188 -191
-16 0 -255 158 -261 172 -2 5 44 57 102 115 72 72 109 103 119 97 7 -4 61 -46
121 -92z m495 2 c69 -64 100 -100 95 -109 -17 -29 -206 -185 -216 -178 -23 13
-207 175 -207 182 0 19 193 201 213 201 7 0 59 -43 115 -96z m515 -17 c48 -52
87 -99 87 -105 0 -11 -236 -172 -253 -172 -12 0 -197 179 -197 192 0 7 170
147 219 181 32 22 41 16 144 -96z m-1596 -22 c88 -29 175 -74 181 -93 2 -6
-47 -65 -110 -130 -62 -64 -173 -182 -247 -262 -74 -80 -141 -145 -150 -145
-28 0 -43 103 -45 300 -1 169 0 183 22 231 60 132 162 161 349 99z m2207 -3
c97 -67 127 -234 91 -492 -18 -124 -22 -140 -39 -140 -7 0 -55 46 -107 103
-52 56 -163 175 -246 263 -84 89 -153 168 -153 176 0 23 188 104 280 122 56
10 135 -4 174 -32z m-1366 -175 c50 -44 92 -88 92 -97 0 -16 -169 -180 -185
-180 -12 0 -210 162 -213 174 -4 19 185 199 200 190 7 -4 55 -43 106 -87z
m459 11 c47 -46 89 -91 94 -100 8 -14 -10 -32 -97 -103 -58 -47 -110 -85 -115
-85 -4 0 -50 40 -100 88 -60 57 -90 93 -85 101 12 18 200 181 210 181 5 0 47
-37 93 -82z m-934 -31 c59 -39 107 -78 107 -86 0 -8 -75 -91 -168 -185 -92
-94 -248 -258 -346 -363 -98 -106 -182 -193 -187 -193 -5 0 -12 8 -17 18 -11
20 -82 293 -82 313 0 15 281 323 448 491 110 112 84 111 245 5z m1518 -79 c79
-84 198 -210 263 -281 111 -121 117 -129 110 -160 -3 -17 -23 -93 -43 -167
-27 -97 -41 -135 -52 -135 -8 0 -77 68 -154 150 -76 83 -230 245 -342 362
-111 116 -203 218 -203 227 0 9 52 50 121 95 92 61 125 78 138 72 9 -5 82 -78
162 -163z m-3450 82 c204 -63 486 -321 807 -738 70 -92 82 -115 63 -127 -6 -3
-88 73 -183 168 -235 236 -364 320 -513 334 -214 20 -358 -185 -419 -598 -10
-68 -21 -108 -31 -115 -21 -15 -273 -30 -287 -16 -12 12 6 283 32 462 44 301
135 518 252 601 73 52 172 63 279 29z m5302 -4 c125 -61 223 -246 276 -519 26
-136 51 -372 51 -487 l0 -90 -57 1 c-84 1 -232 15 -240 22 -3 4 -12 49 -20 99
-46 316 -141 519 -275 590 -63 33 -180 32 -264 -3 -133 -56 -319 -206 -474
-382 -46 -54 -89 -96 -95 -94 -26 9 -3 54 84 167 304 392 555 619 776 702 64
24 183 21 238 -6z m-3115 -188 c57 -45 102 -87 100 -93 -2 -7 -159 -171 -349
-364 l-347 -352 -108 3 -108 3 -18 59 c-18 57 -18 58 3 85 85 108 694 741 713
741 7 0 58 -37 114 -82z m440 10 c84 -80 92 -88 92 -103 0 -14 -178 -167 -190
-163 -24 9 -180 153 -180 167 0 21 160 170 184 171 10 0 52 -33 94 -72z m594
-150 c117 -123 278 -293 356 -378 138 -149 143 -156 139 -191 -3 -20 -11 -50
-19 -65 -13 -29 -13 -29 -121 -32 l-108 -3 -112 118 c-61 65 -216 224 -344
353 -128 130 -233 241 -233 248 0 15 196 172 215 172 7 0 109 -100 227 -222z
m-808 -49 c44 -39 84 -76 88 -82 4 -8 -96 -112 -256 -268 l-261 -256 -160 -4
c-141 -4 -160 -2 -163 12 -4 19 632 669 655 669 9 0 52 -32 97 -71z m641 -221
c311 -317 360 -371 350 -388 -5 -7 -55 -9 -163 -4 l-157 6 -155 152 c-85 83
-203 198 -262 254 -60 57 -108 107 -108 112 0 14 174 160 191 160 10 0 146
-132 304 -292z m-2793 198 c94 -33 223 -122 341 -235 105 -101 237 -245 237
-259 0 -5 -26 -36 -57 -69 l-58 -60 -255 -12 c-140 -7 -352 -18 -470 -26 -142
-10 -218 -11 -224 -5 -14 14 7 170 39 295 34 133 94 255 154 315 80 80 173 98
293 56z m4762 -1 c97 -46 178 -179 227 -371 35 -139 56 -281 43 -294 -6 -6
-92 -4 -227 5 -120 8 -334 20 -475 26 l-256 13 -48 50 c-26 28 -50 59 -54 69
-16 50 341 392 490 469 114 59 221 70 300 33z m-2250 -310 c228 -218 259 -252
250 -267 -3 -4 -225 -8 -495 -8 -415 0 -489 2 -489 14 0 20 471 476 492 476 9
0 118 -97 242 -215z m-1539 -20 c30 -77 55 -144 55 -150 0 -5 -23 -36 -51 -67
-73 -84 -84 -81 -163 40 -97 150 -94 132 -37 199 87 104 121 137 131 127 5 -5
34 -72 65 -149z m2835 -36 c0 -8 -32 -65 -71 -127 -56 -89 -76 -112 -93 -112
-27 0 -126 100 -126 127 0 21 98 271 114 292 9 11 27 -4 93 -75 46 -49 83 -96
83 -105z m-3064 -82 l15 -32 -25 28 c-15 15 -26 33 -26 38 0 18 20 -1 36 -34z
m3094 36 c-1 -11 -50 -70 -50 -60 0 14 34 67 42 67 4 0 8 -3 8 -7z m-3104 -94
c25 -39 43 -76 41 -82 -4 -13 -107 121 -107 141 0 28 23 8 66 -59z m3144 61
c0 -15 -100 -150 -111 -150 -11 0 0 23 40 85 43 68 71 94 71 65z m-3187 -84
c40 -58 45 -76 23 -76 -18 0 -100 106 -91 120 13 20 31 9 68 -44z m3227 36 c0
-25 -83 -117 -98 -108 -9 5 0 25 29 67 42 59 69 75 69 41z m-3282 -63 c36 -44
24 -59 -48 -59 -36 0 -60 4 -60 11 0 19 52 79 69 78 9 0 27 -13 39 -30z m427
-3 c7 -21 6 -29 -5 -36 -19 -12 -51 -12 -70 0 -12 8 -10 14 15 40 34 35 46 34
60 -4z m2475 10 c25 -28 21 -56 -9 -56 -48 0 -62 21 -41 61 14 25 22 24 50 -5z
m447 -8 c49 -48 44 -58 -31 -58 -36 0 -68 4 -71 10 -7 12 42 80 58 80 6 0 26
-14 44 -32z m-2318 -57 c17 -11 2 -30 -140 -178 l-98 -103 -96 0 -95 0 -20 33
c-33 54 -27 72 56 163 l75 83 112 4 c62 1 130 4 152 5 22 1 46 -2 54 -7z
m1193 -48 c83 -80 202 -212 195 -219 -10 -10 -1561 -6 -1565 5 -3 8 162 191
225 249 l24 22 530 0 530 0 61 -57z m242 47 l88 0 74 -77 c41 -43 77 -88 80
-99 3 -13 -3 -39 -15 -63 l-21 -41 -96 0 -95 0 -43 43 c-144 142 -208 217
-202 233 6 14 16 16 74 10 37 -3 107 -6 156 -6z m-1808 -15 c2 -5 -21 -37 -50
-70 -61 -68 -74 -67 -96 10 -19 69 -12 76 72 73 39 -2 73 -7 74 -13z m2104 6
c12 -8 12 -17 -3 -65 -10 -30 -23 -58 -29 -62 -14 -9 -118 99 -118 121 0 12
15 15 68 15 37 0 74 -4 82 -9z m-2279 -76 c15 -38 28 -78 28 -88 1 -9 -18 -38
-40 -62 -33 -36 -45 -43 -55 -34 -19 16 -134 207 -134 222 0 29 25 38 99 35
l73 -3 29 -70z m2502 54 c8 -12 -5 -41 -57 -127 -37 -61 -70 -113 -74 -116
-11 -6 -21 2 -64 51 l-38 43 24 64 c43 112 37 107 123 104 56 -2 78 -7 86 -19z
m-2883 -42 c22 -30 40 -60 40 -68 0 -8 -27 -47 -60 -86 -70 -83 -53 -78 -312
-89 -130 -5 -148 -4 -148 9 0 25 218 275 243 280 12 2 61 5 109 6 l87 1 41
-53z m49 19 c22 -34 27 -56 14 -56 -13 1 -63 72 -57 81 10 16 22 9 43 -25z
m3011 21 c0 -19 -57 -83 -65 -75 -5 4 4 26 19 48 26 40 46 52 46 27z m242 4
c19 -4 61 -46 138 -136 60 -71 110 -136 110 -144 0 -11 -27 -12 -147 -7 -261
11 -243 6 -318 92 -36 41 -65 78 -65 83 0 10 33 54 69 94 23 25 29 27 105 26
45 -1 93 -4 108 -8z m-3612 -15 c0 -22 -221 -276 -244 -280 -21 -4 -645 -47
-677 -46 -9 0 -19 6 -22 14 -8 20 10 257 20 267 7 7 275 27 653 48 238 13 270
13 270 -3z m4015 -1 c448 -24 579 -35 593 -49 9 -9 15 -56 19 -146 l6 -133
-89 6 c-49 3 -204 13 -344 22 -140 9 -265 20 -276 25 -27 11 -246 268 -239
281 8 12 11 12 330 -6z m-4973 -55 c6 -18 -12 -264 -20 -272 -10 -9 -249 -31
-267 -24 -12 4 -15 30 -15 140 0 96 4 137 12 142 30 18 284 30 290 14z m5801
1 c59 -5 92 -13 98 -22 11 -18 11 -250 0 -268 -7 -12 -29 -12 -137 -2 -71 7
-134 18 -140 24 -12 13 -27 260 -17 271 8 8 86 7 196 -3z m-6139 -17 c14 -5
16 -28 16 -145 0 -103 -3 -141 -12 -144 -32 -11 -284 -32 -292 -25 -5 5 -11
69 -14 143 -4 106 -2 136 9 142 7 5 67 14 134 21 66 6 125 12 132 13 6 0 18
-2 27 -5z m6430 -8 c76 -8 143 -19 148 -24 14 -14 -1 -268 -16 -281 -10 -8
-248 12 -283 24 -10 3 -13 41 -13 143 0 76 3 142 7 145 8 8 -9 9 157 -7z
m-1874 -60 l-22 -21 18 35 c10 21 19 30 22 21 2 -7 -6 -23 -18 -35z m2357 9
c17 -3 33 -11 36 -18 8 -21 -13 -271 -23 -281 -12 -12 -299 22 -318 37 -11 9
-12 38 -7 141 4 72 11 136 16 142 8 10 189 -3 296 -21z m-7242 13 c2 -7 5 -71
8 -141 3 -110 2 -129 -12 -136 -21 -11 -309 -47 -316 -39 -13 13 -28 279 -17
290 12 12 184 35 275 37 38 1 59 -3 62 -11z m2061 -13 c24 -37 12 -40 -15 -5
-12 17 -17 30 -12 30 6 0 18 -11 27 -25z m-17 -47 c17 -23 31 -47 31 -54 0
-16 -34 -24 -107 -24 -50 0 -63 3 -63 15 0 19 78 105 95 105 7 0 27 -19 44
-42z m2953 -10 c22 -26 37 -51 33 -57 -9 -15 -137 -14 -158 2 -16 11 -15 16
15 60 41 59 57 58 110 -5z m-5361 -33 c11 -111 14 -214 7 -220 -3 -4 -97 -22
-208 -41 -678 -115 -1077 -257 -1181 -422 -41 -64 -41 -140 -1 -203 41 -64
127 -137 242 -205 91 -54 116 -74 90 -74 -15 0 -187 64 -295 110 -297 126
-509 258 -580 360 -74 107 -66 180 30 276 161 162 627 310 1335 424 313 50
452 68 505 67 l50 -2 6 -70z m7890 55 c688 -91 1251 -227 1519 -366 147 -77
230 -167 230 -250 0 -63 -21 -106 -86 -174 -106 -111 -336 -240 -652 -364
-222 -88 -260 -88 -110 -1 196 113 287 214 288 317 0 53 -14 82 -67 139 -107
115 -350 214 -743 304 -138 32 -428 86 -535 101 -27 4 -58 11 -69 16 -19 10
-19 5 0 231 l6 67 33 0 c18 0 102 -9 186 -20z m-5149 -35 c13 -29 12 -31 -24
-40 -36 -9 -48 17 -23 45 24 26 33 25 47 -5z m2230 8 c33 -30 15 -58 -31 -46
-23 6 -28 32 -9 51 15 15 18 15 40 -5z m-469 -60 l158 -6 60 -61 c70 -72 79
-97 53 -145 l-19 -35 -924 0 -924 -1 -18 43 c-11 24 -16 49 -12 55 4 7 33 42
66 79 l59 67 112 4 c229 6 1237 7 1389 0z m-1558 -13 c9 -14 -62 -100 -81
-100 -21 0 -56 81 -42 97 13 16 114 18 123 3z m1902 -6 c7 -19 -26 -94 -42
-94 -18 0 -97 89 -90 100 3 6 33 10 66 10 45 0 61 -4 66 -16z m-2053 -59 c14
-36 26 -73 26 -83 0 -23 -45 -66 -59 -58 -16 10 -111 172 -111 190 0 13 11 16
59 16 l59 0 26 -65z m2226 54 c0 -16 -99 -187 -112 -195 -6 -4 -24 7 -40 24
l-28 32 25 66 c13 36 27 69 30 75 9 13 125 12 125 -2z m-2520 -29 c12 -17 20
-36 18 -44 -2 -8 -34 -50 -71 -94 l-69 -80 -116 -6 c-65 -4 -140 -8 -168 -10
-63 -5 -84 5 -64 31 34 42 127 151 164 191 l40 42 122 0 123 0 21 -30z m2954
8 c52 -48 186 -214 183 -228 -3 -16 -6 -16 -229 -4 l-118 6 -70 81 c-38 44
-70 88 -70 97 0 10 9 29 21 44 20 25 23 26 139 26 109 0 121 -2 144 -22z
m-3286 -2 c-2 -8 -46 -66 -100 -129 l-96 -114 -64 -6 c-154 -15 -338 -20 -338
-9 0 6 45 65 100 131 110 132 103 128 235 134 208 9 267 7 263 -7z m3715 -5
c30 -11 219 -243 207 -255 -10 -10 -373 8 -391 20 -25 15 -208 238 -202 247 6
10 353 0 386 -12z m-4163 -14 c0 -7 -45 -67 -101 -134 l-100 -121 -77 -7 c-42
-4 -144 -13 -226 -21 -109 -10 -153 -10 -163 -2 -9 7 -13 42 -13 124 0 109 1
115 23 124 12 5 130 16 262 25 132 9 254 17 270 19 82 8 125 6 125 -7z m4630
-12 c124 -9 235 -18 247 -20 17 -4 23 -15 29 -51 7 -50 -3 -194 -14 -206 -7
-7 -106 0 -400 28 l-63 6 -104 125 c-58 68 -102 129 -99 135 4 7 38 8 93 4 47
-3 187 -13 311 -21z m-5332 -157 c3 -148 21 -130 -152 -149 -83 -9 -110 -8
-116 1 -12 19 -20 234 -9 245 10 10 192 34 244 31 l30 -1 3 -127z m5763 122
c165 -16 149 -2 149 -133 0 -154 2 -152 -130 -137 -168 18 -150 1 -150 144 0
67 3 126 7 129 8 9 2 9 124 -3z m-6068 -100 c4 -41 6 -100 5 -130 l-3 -55
-138 -19 c-96 -13 -141 -16 -148 -9 -14 14 -33 243 -21 255 9 9 222 37 267 35
30 -2 30 -3 38 -77z m1875 30 c46 -72 44 -80 -28 -82 -113 -4 -123 -3 -127 8
-5 16 88 124 107 124 8 0 30 -23 48 -50z m2601 -7 c28 -32 50 -62 48 -68 -5
-12 -177 -8 -190 5 -11 10 61 120 79 120 7 0 35 -26 63 -57z m1929 42 c67 -8
128 -17 134 -21 13 -9 3 -243 -12 -258 -6 -6 -59 -2 -147 10 l-138 19 -3 119
c-3 116 4 146 32 146 6 0 66 -7 134 -15z m-6737 -80 c12 -86 16 -193 9 -204
-3 -6 -73 -23 -155 -36 -119 -20 -152 -23 -161 -13 -15 17 -36 250 -23 263 11
12 230 44 284 42 l40 -2 6 -50z m7101 36 c70 -9 131 -20 135 -24 9 -10 -12
-256 -24 -268 -10 -10 -290 32 -313 46 -11 7 -7 151 6 233 6 39 11 39 196 13z
m-4634 -39 c3 -18 -2 -22 -22 -22 -28 0 -34 18 -14 38 17 17 32 10 36 -16z
m2010 16 c20 -20 14 -38 -12 -38 -30 0 -42 16 -26 35 15 18 22 19 38 3z
m-4835 -45 c3 -21 9 -84 13 -140 l7 -101 -59 -12 c-568 -114 -875 -266 -874
-432 1 -81 91 -186 230 -269 131 -77 94 -79 -97 -3 -229 90 -437 204 -536 293
-135 121 -129 242 17 346 188 134 508 228 1186 348 14 2 44 5 66 6 40 1 42 0
47 -36z m7952 -9 c510 -93 865 -213 1002 -337 90 -83 104 -145 53 -233 -48
-85 -150 -161 -350 -263 -139 -71 -394 -174 -418 -169 -11 3 12 23 70 61 116
75 176 131 204 192 29 60 29 87 5 141 -61 134 -331 251 -833 359 -42 9 -79 22
-81 29 -5 12 10 203 19 245 5 23 7 23 72 17 37 -4 152 -23 257 -42z m-3250
-15 c11 -12 6 -30 -29 -109 l-42 -95 -819 -1 -818 0 -44 94 c-24 52 -42 100
-39 108 7 18 187 22 1069 19 584 -2 711 -5 722 -16z m-1857 -6 c18 -17 82
-164 82 -190 0 -7 -9 -13 -19 -13 -15 0 -35 27 -75 98 -31 54 -56 101 -56 104
0 6 17 12 41 17 4 0 16 -7 27 -16z m1992 -8 c0 -7 -23 -54 -52 -104 -35 -61
-58 -91 -70 -91 -25 0 -23 18 18 119 22 56 42 91 52 93 26 6 52 -3 52 -17z
m-2200 0 c20 -24 4 -56 -73 -138 l-72 -79 -152 -5 c-121 -5 -153 -3 -153 7 0
7 33 51 73 97 39 47 78 92 85 101 9 12 35 19 90 23 148 11 189 10 202 -6z
m2581 5 c36 0 43 -6 129 -105 49 -58 90 -110 90 -117 0 -13 -289 -5 -313 9
-17 9 -157 170 -157 180 0 4 8 15 18 26 15 18 26 19 106 13 49 -3 106 -6 127
-6z m-2915 -15 c4 -9 -24 -51 -76 -112 -46 -54 -88 -101 -94 -104 -21 -13
-338 -31 -349 -20 -6 6 19 45 78 116 48 59 92 108 99 111 6 2 79 8 161 13 83
4 156 9 163 10 7 0 15 -6 18 -14z m3223 0 c68 -3 130 -9 137 -13 28 -16 185
-215 176 -224 -6 -6 -65 -6 -155 1 -80 6 -157 11 -170 11 -23 0 -83 62 -191
198 -24 30 -8 43 44 37 19 -2 91 -7 159 -10z m-3619 -23 c0 -10 -169 -215
-183 -223 -7 -4 -82 -12 -167 -18 -85 -7 -170 -15 -187 -18 -60 -10 -51 18 43
132 48 59 92 109 99 111 39 15 395 30 395 16z m4157 -9 c52 -6 53 -6 134 -107
45 -55 87 -107 92 -114 6 -8 7 -16 1 -22 -8 -7 -321 13 -380 25 -22 5 -194
205 -194 226 0 12 220 7 347 -8z m-4607 -21 c0 -19 -184 -232 -203 -237 -12
-2 -62 -9 -112 -15 -69 -7 -92 -7 -101 3 -16 16 -23 202 -9 216 20 20 425 52
425 33z m4959 -7 c90 -8 167 -18 172 -21 14 -8 11 -197 -4 -217 -11 -16 -21
-17 -122 -5 l-109 13 -93 110 c-51 61 -92 116 -93 123 0 16 46 15 249 -3z
m-3696 -56 c21 -34 35 -65 30 -70 -14 -14 -198 -16 -198 -2 0 17 103 133 118
133 7 0 29 -28 50 -61z m2296 1 c73 -83 67 -94 -47 -85 -48 4 -91 11 -96 15
-11 11 61 130 78 130 7 0 37 -27 65 -60z m-4015 -22 c3 -29 6 -81 6 -115 0
-57 -2 -63 -22 -68 -48 -11 -224 -32 -235 -28 -12 5 -27 144 -21 203 l3 35 85
11 c47 6 106 12 131 13 l46 1 7 -52z m5776 42 c133 -17 123 -5 115 -128 -4
-59 -12 -112 -19 -118 -8 -9 -42 -7 -131 5 l-120 16 -3 95 c-2 52 0 105 3 118
6 26 26 27 155 12z m-6083 -32 c17 -21 25 -215 11 -225 -7 -4 -69 -18 -138
-30 -94 -16 -128 -18 -137 -10 -15 16 -34 219 -22 232 5 6 60 17 122 26 143
21 153 22 164 7z m6378 -4 c68 -9 129 -20 135 -24 16 -10 4 -211 -13 -234 -11
-14 -24 -13 -127 4 -63 11 -126 22 -139 25 l-24 6 8 112 c4 62 9 115 12 120 6
10 7 9 148 -9z m-6691 -72 c12 -87 17 -200 9 -205 -18 -11 -303 -70 -309 -64
-3 3 -12 59 -20 124 -11 95 -11 120 -1 130 14 14 284 63 304 56 6 -3 14 -21
17 -41z m7050 17 c67 -11 125 -24 131 -30 11 -11 -10 -238 -24 -252 -7 -7 -58
0 -153 22 -78 18 -146 35 -151 38 -9 5 0 219 10 236 7 12 59 8 187 -14z
m-3039 -19 c105 0 196 -4 204 -9 12 -8 -2 -45 -71 -198 -220 -481 -679 -1438
-703 -1462 -8 -8 -17 -12 -20 -10 -18 19 -502 1027 -691 1440 -84 184 -100
224 -91 231 7 6 643 15 892 12 160 -2 376 -4 480 -4z m-4365 -34 c1 -6 7 -62
13 -124 7 -62 10 -116 7 -121 -3 -4 -50 -23 -105 -41 -362 -118 -470 -266
-312 -424 29 -29 76 -67 105 -86 53 -34 65 -50 36 -50 -45 0 -358 144 -470
215 -115 73 -194 168 -194 230 0 107 140 208 410 298 108 36 337 95 465 119
26 5 45 -1 45 -16z m2762 7 c22 -26 246 -405 380 -643 215 -381 538 -988 538
-1009 0 -16 -17 -14 -175 14 -77 14 -295 52 -485 85 -382 65 -729 130 -1190
221 -371 73 -350 68 -350 84 0 32 588 770 968 1215 29 34 33 35 113 41 163 11
185 10 201 -8z m177 -25 c44 -102 35 -120 -17 -34 -36 60 -39 76 -17 76 9 0
24 -19 34 -42z m1735 34 c5 -9 -48 -107 -64 -117 -14 -9 -12 8 7 57 24 62 43
82 57 60z m413 -11 c25 -14 450 -528 723 -875 242 -309 284 -366 274 -376 -22
-22 -872 -186 -1794 -346 -419 -72 -400 -70 -400 -53 0 59 872 1627 924 1662
12 8 254 -2 273 -12z m-2657 -11 c0 -4 -57 -74 -126 -156 -191 -225 -428 -519
-632 -783 -101 -130 -195 -250 -210 -268 l-28 -31 -113 23 c-62 12 -118 28
-124 34 -8 8 23 54 111 170 268 355 778 987 809 1005 16 9 279 24 301 18 6 -2
12 -8 12 -12z m3015 -4 c25 -9 431 -509 743 -914 184 -239 197 -258 183 -266
-5 -3 -60 -17 -122 -30 -79 -17 -117 -22 -126 -15 -6 6 -69 86 -140 177 -183
240 -459 584 -665 830 -98 117 -178 216 -178 221 0 5 4 11 10 13 14 4 279 -9
295 -16z m2296 -1 c427 -96 677 -209 731 -333 18 -39 18 -50 8 -88 -32 -112
-217 -241 -530 -370 -108 -44 -140 -52 -140 -35 0 4 25 25 56 46 77 51 139
117 159 169 47 123 -78 238 -361 332 -60 20 -113 39 -117 44 -7 6 6 173 19
238 6 29 31 29 175 -3z m-5685 -9 c3 -9 -66 -103 -181 -242 -214 -263 -408
-508 -589 -746 -132 -174 -159 -196 -170 -140 -11 55 -36 254 -36 288 0 31 23
65 174 257 302 386 447 562 469 569 12 4 85 11 162 16 77 5 146 10 153 11 7 0
15 -5 18 -13z m3649 -2 c72 -3 138 -11 148 -16 17 -9 414 -500 566 -701 l75
-98 -22 -161 c-12 -89 -26 -166 -31 -171 -5 -5 -16 -7 -24 -4 -8 3 -88 101
-178 219 -149 194 -490 622 -670 841 -57 70 -69 91 -58 98 8 5 25 7 39 4 14
-2 84 -7 155 -11z m-4050 -24 c3 -5 -92 -132 -212 -283 -120 -150 -249 -313
-286 -361 -38 -48 -74 -86 -80 -83 -13 4 -30 128 -42 308 l-8 107 112 141 c66
83 121 143 134 146 21 5 294 31 349 34 15 0 30 -3 33 -9z m4500 -11 c77 -6
145 -14 152 -18 27 -14 233 -286 233 -308 0 -29 -28 -304 -36 -355 -3 -21 -11
-38 -17 -38 -7 0 -37 32 -67 72 -30 40 -154 196 -275 347 -121 152 -224 281
-228 288 -15 24 4 35 52 29 25 -3 109 -11 186 -17z m-4959 -34 c8 -21 -155
-220 -169 -206 -6 6 -13 51 -15 101 -4 72 -2 91 10 95 12 5 102 18 156 24 7 0
15 -6 18 -14z m5287 0 c45 -4 70 -12 74 -21 9 -25 -11 -189 -24 -189 -10 0
-145 161 -164 197 -10 18 5 29 31 23 8 -2 46 -6 83 -10z m-5499 -37 c3 -13 8
-69 11 -126 l7 -102 -103 -133 c-107 -138 -120 -151 -130 -139 -8 8 -36 252
-45 391 -6 83 -4 101 7 102 8 0 52 7 99 14 131 20 149 19 154 -7z m5750 8 c54
-8 103 -19 108 -24 12 -12 -28 -446 -44 -476 -12 -23 -6 -29 -133 134 l-97
125 6 119 c4 66 9 123 12 128 7 11 32 10 148 -6z m-6040 -48 c3 -13 10 -81 16
-153 6 -71 17 -179 24 -240 9 -77 10 -116 3 -130 -19 -37 -217 -295 -227 -295
-13 0 -17 19 -44 220 -46 339 -69 561 -59 571 11 11 197 46 250 48 26 1 34 -3
37 -21z m6378 -4 c48 -9 89 -21 91 -28 10 -24 -83 -770 -97 -784 -10 -9 -43
29 -151 173 -93 124 -97 131 -92 170 3 22 15 137 27 255 12 118 23 221 26 229
5 15 43 12 196 -15z m-6704 -36 c5 -7 20 -98 32 -203 12 -104 34 -282 50 -395
18 -131 25 -209 19 -215 -6 -6 -65 4 -167 30 l-157 40 -12 75 c-25 147 -80
585 -75 597 2 7 18 17 35 22 26 9 234 57 258 60 4 1 11 -5 17 -11z m7020 -28
c62 -15 116 -30 119 -34 13 -13 -75 -656 -92 -675 -12 -13 -270 -81 -307 -81
-10 0 -18 5 -18 11 0 6 13 111 30 232 16 122 39 300 50 395 11 95 22 177 26
183 7 11 37 6 192 -31z m-7359 -62 c5 -13 26 -153 46 -313 21 -159 40 -296 42
-302 17 -45 -121 -12 -269 64 -351 179 -388 332 -113 468 61 30 252 102 278
104 4 1 11 -9 16 -21z m7689 -34 c395 -148 391 -323 -13 -523 -110 -55 -235
-94 -251 -79 -3 4 10 123 29 265 20 142 39 283 43 313 3 30 11 60 16 67 10 13
60 1 176 -43z m-6706 -145 c4 -30 14 -121 23 -203 l16 -149 -102 -134 c-56
-73 -107 -132 -113 -130 -9 3 -31 132 -60 352 l-6 50 106 138 c59 76 112 136
118 134 6 -2 14 -28 18 -58z m5677 -74 c84 -108 101 -136 101 -165 0 -44 -46
-370 -53 -377 -11 -10 -29 10 -122 134 -53 70 -95 136 -95 148 0 12 9 102 20
201 11 98 20 183 20 187 0 27 40 -13 129 -128z m258 -338 c64 -85 101 -143 95
-149 -12 -12 -254 -68 -264 -62 -5 3 -8 17 -8 32 0 37 39 312 46 323 9 16 23
1 131 -144z m-6168 -30 c13 -96 19 -173 14 -178 -10 -10 -249 43 -265 59 -14
14 190 293 212 289 12 -2 20 -41 39 -170z m276 23 c9 -15 39 -259 32 -266 -9
-9 -185 27 -205 42 -14 10 -6 25 68 123 47 61 88 111 92 111 4 0 9 -4 13 -10z
m5557 -96 c42 -54 77 -106 78 -116 0 -12 -21 -21 -91 -37 -104 -24 -116 -25
-121 -10 -2 6 4 66 14 133 9 66 17 125 17 129 2 22 32 -7 103 -99z m-6302 -70
c61 -19 110 -40 110 -46 0 -9 -21 -41 -56 -87 -5 -5 -145 -2 -166 5 -18 5 -23
23 -33 107 -7 54 -6 57 14 57 12 0 71 -16 131 -36z m7095 -6 c-14 -94 -18
-108 -29 -117 -9 -8 -121 -16 -163 -12 -14 1 -63 70 -63 87 0 14 191 82 233
83 28 1 29 0 22 -41z m-6909 -72 c3 -13 4 -35 2 -47 -3 -21 -8 -24 -43 -21
-56 5 -62 15 -31 57 32 41 63 46 72 11z m6648 -13 c14 -20 23 -39 21 -43 -7
-11 -74 -20 -91 -13 -12 4 -14 14 -9 42 9 46 12 51 35 51 11 0 30 -16 44 -37z
m-6504 -10 c110 -30 126 -39 108 -60 -8 -10 -26 -13 -67 -8 -140 15 -141 15
-152 42 -10 27 -6 53 8 53 4 0 50 -12 103 -27z m6400 -7 c0 -19 -5 -38 -10
-41 -15 -9 -189 -25 -206 -18 -31 11 -12 32 44 48 31 9 75 22 97 30 65 22 75
20 75 -19z m-6997 -34 c106 -7 133 -17 124 -47 -2 -6 -139 -12 -368 -16 -200
-4 -409 -12 -464 -18 -490 -54 -762 -142 -925 -301 -283 -276 -85 -731 569
-1310 83 -73 151 -136 151 -140 0 -4 -39 -75 -86 -159 -56 -98 -92 -151 -103
-151 -9 0 -92 61 -186 136 -844 676 -1187 1200 -1015 1549 139 280 587 427
1425 469 98 5 748 -4 878 -12z m8422 8 c793 -40 1234 -194 1368 -478 30 -63
32 -74 32 -177 0 -90 -4 -123 -24 -180 -48 -140 -132 -284 -267 -455 -89 -112
-407 -429 -564 -561 -201 -170 -371 -300 -388 -297 -17 3 -182 283 -181 308 0
8 45 53 101 100 217 184 455 438 568 606 66 96 135 241 156 324 26 101 16 221
-24 302 -145 294 -656 438 -1560 438 -239 0 -273 2 -279 16 -14 37 15 43 247
52 321 13 585 13 815 2z m-8146 -34 c20 -24 -24 -47 -73 -40 -48 8 -61 17 -53
38 8 21 109 22 126 2z m491 4 c0 -5 -4 -10 -10 -10 -5 0 -10 5 -10 10 0 6 5
10 10 10 6 0 10 -4 10 -10z m5970 0 c0 -5 -7 -10 -15 -10 -8 0 -15 5 -15 10 0
6 7 10 15 10 8 0 15 -4 15 -10z m594 1 c20 -32 -71 -64 -115 -41 -22 12 -25
36 -6 43 21 9 116 7 121 -2z m-6867 -22 c28 -24 -4 -37 -75 -32 -76 6 -91 15
-71 39 11 13 24 15 73 10 32 -3 65 -11 73 -17z m6703 1 c8 -15 8 -21 -2 -24
-29 -9 -136 -13 -148 -6 -22 13 -3 38 32 43 83 10 107 7 118 -13z m-6522 -6
c25 -7 30 -32 8 -40 -8 -3 -45 -2 -82 3 -54 6 -69 12 -72 26 -3 15 5 17 60 17
35 0 73 -3 86 -6z m6336 -2 c11 -19 -13 -30 -80 -37 -58 -5 -73 -4 -83 9 -11
13 -10 17 10 25 29 12 146 14 153 3z m-6199 -33 c0 -18 -38 -23 -66 -8 -21 11
-21 13 -5 24 21 16 71 5 71 -16z m5979 25 c9 -3 16 -12 16 -20 0 -16 -43 -29
-65 -20 -23 8 -18 34 8 39 12 2 23 5 24 6 1 0 8 -2 17 -5z m-5753 -30 c6 -4 6
-11 -1 -19 -8 -9 -28 -12 -68 -9 -101 9 -122 14 -122 31 0 14 11 15 91 10 50
-4 95 -10 100 -13z m5659 7 c0 -17 -21 -24 -99 -31 -80 -8 -104 -5 -98 14 7
20 197 36 197 17z m-6542 -13 c17 -17 15 -45 -4 -52 -9 -3 -61 -6 -117 -6 -56
0 -154 -5 -217 -10 -565 -49 -891 -185 -976 -411 -12 -30 -17 -73 -17 -134 0
-76 5 -103 30 -171 59 -158 166 -312 349 -503 63 -67 113 -125 111 -129 -49
-94 -174 -282 -186 -282 -9 0 -84 60 -166 133 -340 303 -558 580 -636 806
-152 442 231 700 1126 760 202 14 689 13 703 -1z m7917 2 c648 -43 1020 -180
1137 -418 31 -63 33 -73 32 -172 0 -89 -5 -116 -28 -180 -48 -129 -135 -269
-262 -420 -152 -181 -507 -515 -541 -508 -15 3 -181 260 -182 281 -1 5 46 59
105 120 261 274 384 495 384 687 0 119 -25 178 -114 265 -79 78 -179 134 -321
178 -193 60 -531 107 -777 107 -53 0 -103 3 -112 6 -19 7 -21 50 -3 57 22 10
529 7 682 -3z m-7815 -9 c0 -24 -14 -41 -35 -41 -23 0 -40 24 -29 41 7 12 64
12 64 0z m251 -13 c22 -35 -31 -45 -160 -32 -61 7 -73 17 -48 43 16 17 197 7
208 -11z m6737 10 c28 -28 12 -36 -82 -43 -104 -8 -139 -2 -134 23 4 19 47 28
144 31 35 0 65 -4 72 -11z m102 -13 c0 -20 -5 -25 -25 -25 -14 0 -29 8 -35 19
-15 29 -13 31 25 31 31 0 35 -3 35 -25z m-6696 -5 c17 -17 -7 -30 -55 -30 -36
0 -51 4 -56 16 -3 9 0 20 8 25 15 10 89 2 103 -11z m446 10 c0 -5 -4 -10 -10
-10 -5 0 -10 5 -10 10 0 6 5 10 10 10 6 0 10 -4 10 -10z m114 -10 c7 -7 -5
-10 -32 -10 -32 0 -42 4 -42 16 0 13 7 15 32 10 18 -3 37 -11 42 -16z m5196
10 c0 -15 -24 -22 -57 -18 l-28 4 25 11 c32 15 60 16 60 3z m589 -4 c18 -21
-11 -38 -61 -34 -31 2 -44 8 -46 20 -2 12 5 18 25 21 55 8 71 7 82 -7z m-6175
-16 c17 -17 -7 -30 -54 -30 -26 0 -55 3 -64 6 -19 7 -21 30 -3 37 17 6 110 -4
121 -13z m6027 4 c19 -23 -4 -34 -74 -34 -50 0 -58 2 -55 18 2 12 16 19 48 23
25 3 50 7 56 7 6 1 17 -5 25 -14z m-5860 -15 c31 -16 12 -29 -46 -29 -63 0
-85 7 -85 26 0 17 101 20 131 3z m5699 1 c0 -18 -41 -31 -92 -28 -51 3 -76 22
-41 31 34 9 133 7 133 -3z m-5589 -10 c5 0 9 -7 9 -15 0 -18 -55 -21 -66 -4
-8 14 16 31 34 24 8 -3 18 -5 23 -5z m5394 -10 c0 -9 -11 -16 -27 -18 -20 -2
-28 1 -28 12 0 8 6 17 13 19 21 9 42 2 42 -13z m-5217 -6 c20 -3 32 -10 29
-17 -5 -15 -136 -10 -155 6 -29 24 17 28 126 11z m5117 -4 c0 -11 -18 -17 -70
-22 -78 -8 -105 -4 -87 14 10 10 110 27 142 24 8 -1 15 -8 15 -16z m-6212 -20
c10 -37 -13 -48 -138 -65 -375 -50 -613 -160 -695 -321 -22 -43 -25 -62 -25
-154 0 -97 3 -111 34 -183 18 -43 62 -121 98 -174 l65 -97 -18 -31 c-51 -87
-165 -255 -173 -255 -14 0 -210 208 -273 291 -170 222 -241 415 -204 560 30
116 116 210 261 281 194 96 565 163 931 167 123 1 132 0 137 -19z m344 4 c3
-8 1 -20 -5 -26 -13 -13 -302 -24 -302 -12 0 5 7 20 16 32 14 21 22 22 150 22
113 0 136 -3 141 -16z m78 -9 c0 -22 -31 -33 -47 -17 -17 17 -1 44 24 40 15
-2 23 -10 23 -23z m6383 2 c4 -20 -25 -34 -40 -19 -15 15 -1 44 19 40 10 -2
19 -11 21 -21z m326 1 c9 -12 16 -26 16 -30 0 -10 -149 -10 -242 -1 -55 5 -68
9 -68 23 0 9 3 20 7 23 3 4 66 7 139 7 126 0 134 -1 148 -22z m401 12 c659
-55 985 -227 985 -518 0 -37 -7 -92 -15 -122 -22 -87 -98 -226 -184 -340 -86
-114 -266 -310 -284 -310 -11 0 -168 235 -183 273 -4 12 10 41 44 90 323 469
127 759 -578 852 -121 16 -147 28 -135 64 6 20 13 21 118 21 62 0 166 -5 232
-10z m-6891 -6 c9 -3 16 -12 16 -20 0 -11 -21 -14 -100 -14 -77 0 -100 3 -100
13 0 8 3 17 7 20 8 9 156 9 177 1z m699 -8 c94 -14 116 -20 106 -31 -11 -10
-262 20 -267 33 -5 16 36 15 161 -2z m4667 4 c0 -5 -10 -12 -22 -14 -44 -9
-241 -26 -246 -21 -11 11 11 18 95 30 110 16 173 18 173 5z m713 -4 c9 -23 -2
-26 -100 -26 -71 0 -93 3 -93 13 0 24 12 27 101 27 65 0 88 -3 92 -14z m-5940
-3 c11 -11 -14 -33 -38 -33 -34 0 -55 10 -55 26 0 10 13 14 43 14 24 0 47 -3
50 -7z m5713 -4 c9 -16 -15 -29 -53 -29 -33 0 -49 13 -38 30 8 14 82 13 91 -1z
m-5561 -19 c0 -12 -11 -14 -55 -12 -60 3 -65 5 -55 22 11 17 110 9 110 -10z
m5429 5 c-2 -14 -95 -28 -107 -16 -5 5 -6 14 -2 21 8 14 111 9 109 -5z m-5266
-10 c13 -13 -25 -24 -63 -19 -57 8 -67 12 -59 25 7 12 110 7 122 -6z m5112 1
c0 -14 -94 -31 -111 -20 -15 9 -10 22 9 27 41 11 102 7 102 -7z m-4781 -32
c72 -10 129 -20 126 -22 -4 -4 -245 12 -362 24 -29 3 -53 10 -53 16 0 13 97 7
289 -18z m4615 16 c-6 -6 -91 -17 -190 -25 -274 -23 -296 -17 -59 14 164 22
264 26 249 11z m-5700 -6 c32 -12 14 -53 -90 -200 -122 -173 -135 -187 -146
-176 -5 5 -22 84 -39 177 -21 121 -27 171 -19 179 6 6 64 14 128 17 64 3 125
6 134 7 9 1 23 -1 32 -4z m323 -20 c7 -10 13 -35 13 -57 0 -33 -15 -60 -102
-183 -56 -79 -107 -144 -114 -144 -14 0 -15 3 -49 202 -35 204 -30 211 134
204 86 -3 107 -7 118 -22z m6095 14 c35 -29 36 -46 6 -217 -16 -91 -34 -170
-39 -176 -13 -12 -24 1 -141 168 -94 134 -93 132 -72 209 6 19 34 24 155 26
47 1 81 -3 91 -10z m345 -4 c17 -2 33 -10 35 -17 9 -23 -57 -352 -69 -352 -12
0 -253 330 -253 346 0 4 7 14 15 22 11 12 37 14 127 10 62 -2 127 -6 145 -9z
m-6369 -16 c-5 -34 -38 -37 -38 -4 0 20 5 26 21 26 15 0 20 -5 17 -22z m209
-2 c7 -6 15 -41 19 -78 l7 -66 -89 -124 c-48 -67 -93 -126 -98 -130 -17 -11
-23 9 -50 161 -28 159 -28 165 33 230 30 32 31 33 98 26 38 -4 73 -12 80 -19z
m5454 12 c36 -30 69 -88 69 -120 -1 -51 -45 -277 -57 -289 -8 -8 -37 26 -96
110 -113 158 -109 149 -97 213 17 86 17 87 63 91 86 7 104 7 118 -5z m86 -4
c3 -8 1 -20 -6 -27 -14 -14 -47 15 -37 32 10 16 36 13 43 -5z m-5449 0 c12 -4
22 -11 22 -17 0 -17 -44 -77 -56 -77 -23 0 -33 85 -11 93 17 7 19 7 45 1z
m5160 -3 c10 -6 11 -19 7 -45 -12 -59 -32 -58 -68 3 -18 31 -18 31 5 40 29 12
40 13 56 2z m-6244 -9 c3 -4 -48 -82 -111 -173 -64 -90 -197 -283 -295 -429
-99 -146 -184 -265 -191 -265 -17 0 -82 90 -126 175 -134 258 -80 446 163 565
104 51 225 88 376 115 115 20 176 24 184 12z m100 -201 c19 -107 32 -199 29
-205 -4 -6 -77 -117 -163 -246 -86 -129 -191 -290 -234 -357 -43 -68 -84 -123
-91 -123 -17 0 -215 209 -215 227 0 15 188 300 388 588 180 259 233 328 242
319 5 -5 25 -96 44 -203z m1431 173 c460 -45 1036 -126 1599 -225 349 -61 336
-58 336 -74 0 -28 -1155 -962 -1779 -1438 -192 -146 -236 -176 -247 -165 -35
36 -287 1165 -379 1696 -18 104 -20 96 63 200 l35 44 56 -6 c31 -3 173 -17
316 -32z m4645 -31 c50 -67 51 -69 46 -128 -18 -212 -346 -1709 -383 -1746
-12 -12 -124 70 -528 385 -468 364 -1456 1164 -1494 1209 -11 14 -10 18 10 26
46 19 744 135 1174 195 367 52 967 120 1097 125 23 1 36 -11 78 -66z m1260
-218 c296 -425 423 -621 413 -639 -19 -34 -195 -216 -209 -216 -8 0 -43 44
-77 98 -34 53 -142 218 -241 366 l-179 268 33 187 c18 102 37 195 43 205 9 19
10 19 30 -5 11 -13 95 -132 187 -264z m23 265 c466 -81 672 -261 603 -529 -26
-101 -155 -331 -186 -331 -5 0 -69 89 -142 198 -72 108 -203 299 -290 424 -87
125 -161 234 -164 243 -8 21 35 20 179 -5z m-7038 -72 c3 -7 18 -87 34 -177
l30 -164 -116 -174 c-64 -95 -122 -172 -127 -170 -12 4 -75 292 -76 343 0 23
23 63 91 160 146 207 152 214 164 182z m6581 -154 l118 -167 -28 -146 c-36
-186 -45 -221 -56 -221 -6 0 -62 78 -126 174 l-116 175 26 148 c37 208 36 203
51 203 8 0 67 -75 131 -166z m-6262 97 c3 -4 17 -76 32 -158 l27 -149 -102
-153 c-56 -84 -108 -151 -114 -148 -13 4 -66 240 -67 296 0 26 21 62 101 177
56 79 105 144 110 144 4 0 10 -4 13 -9z m5829 -9 c46 -51 197 -278 197 -296
-1 -30 -56 -296 -63 -303 -12 -11 -34 16 -126 155 -53 81 -91 148 -91 162 0
14 11 85 25 159 14 74 25 136 25 138 0 9 19 1 33 -15z m-5520 -143 c112 -587
194 -968 302 -1404 36 -143 65 -263 65 -267 0 -11 -189 -148 -204 -148 -17 0
-14 -13 -101 336 -102 412 -286 1256 -285 1313 1 24 180 273 193 268 7 -2 20
-46 30 -98z m5309 -21 c47 -68 88 -128 91 -135 14 -23 -165 -861 -299 -1398
-59 -238 -67 -265 -85 -265 -20 0 -199 139 -199 154 0 8 36 159 79 337 112
452 217 953 295 1392 4 20 13 37 20 37 7 0 51 -55 98 -122z m-2732 -265 c0
-461 -25 -1235 -55 -1733 -29 -466 -80 -1000 -100 -1026 -10 -14 -36 -6 -219
70 -347 144 -662 289 -1051 481 -483 240 -619 314 -623 340 -6 54 641 763
1117 1222 471 455 893 843 917 843 12 0 14 -32 14 -197z m195 71 c471 -425
1206 -1148 1495 -1469 172 -191 390 -452 390 -465 0 -19 -41 -45 -257 -159
-545 -287 -1616 -773 -1643 -745 -15 16 -67 549 -94 979 -47 721 -74 1985 -43
1985 6 0 75 -57 152 -126z m-3671 29 c3 -10 19 -91 37 -179 l31 -162 -142
-228 c-78 -126 -153 -246 -167 -267 -28 -45 -23 -46 -136 51 -121 104 -116 92
-72 165 104 171 419 637 431 637 7 0 15 -8 18 -17z m7109 -133 c178 -264 347
-529 347 -547 0 -10 -44 -56 -101 -106 -82 -71 -103 -86 -115 -76 -8 6 -38 50
-66 98 -28 47 -98 159 -155 249 -57 89 -103 171 -103 181 0 23 60 333 67 344
11 18 32 -5 126 -143z m-6755 83 c6 -27 21 -100 33 -163 l22 -115 -55 -85
c-30 -47 -81 -127 -112 -177 -54 -88 -69 -103 -79 -85 -3 4 -20 79 -38 167
l-33 160 103 155 c108 162 129 190 142 190 4 0 12 -21 17 -47z m6417 -126
l116 -173 -34 -162 c-19 -89 -37 -165 -41 -169 -10 -11 -27 12 -135 183 -58
92 -101 172 -101 186 0 23 46 266 55 296 3 6 9 12 15 12 5 0 62 -78 125 -173z
m-6050 -152 c73 -358 125 -589 227 -1003 l83 -333 -30 -24 c-17 -13 -35 -24
-42 -25 -18 0 -233 131 -242 149 -17 31 -188 766 -262 1123 l-22 107 94 142
c108 164 119 177 129 157 4 -7 33 -139 65 -293z m5726 143 c72 -108 98 -155
94 -171 -3 -12 -25 -116 -50 -232 -75 -357 -194 -861 -225 -960 -8 -25 -32
-44 -123 -98 -62 -37 -117 -67 -121 -67 -20 0 -66 43 -66 62 0 12 27 128 60
257 85 337 169 710 239 1055 34 164 64 302 67 307 10 17 24 -1 125 -153z
m-6014 -259 c7 -30 36 -160 64 -289 28 -129 80 -356 115 -503 35 -148 64 -276
64 -284 0 -26 -33 -10 -205 104 -151 99 -166 111 -176 146 -30 112 -119 523
-115 534 16 42 220 353 229 350 6 -2 17 -28 24 -58z m6264 -125 c69 -111 99
-168 99 -189 -1 -16 -27 -145 -59 -285 -51 -217 -63 -257 -84 -275 -78 -68
-357 -233 -357 -211 0 2 29 122 64 267 36 145 92 392 126 549 34 157 66 296
71 309 9 22 12 23 25 9 9 -9 60 -87 115 -174z m-6617 158 c2 -4 19 -79 37
-167 l33 -160 -83 -145 c-45 -80 -89 -151 -96 -159 -12 -12 -25 -6 -88 42 -40
31 -86 68 -101 82 -32 30 -40 10 92 225 177 286 191 306 206 282z m6973 -199
c168 -269 167 -268 160 -286 -7 -19 -177 -156 -193 -157 -6 0 -52 71 -102 158
l-91 158 24 110 c13 60 28 135 35 167 7 35 17 57 25 57 7 0 71 -93 142 -207z
m-7689 46 c54 -56 101 -108 105 -116 6 -10 -13 -51 -63 -134 -40 -65 -78 -123
-85 -129 -13 -11 -57 23 -200 152 -47 43 -49 47 -37 72 23 51 161 256 173 256
6 0 54 -46 107 -101z m8458 -34 c46 -71 83 -134 83 -138 1 -10 -31 -41 -148
-144 -46 -40 -87 -73 -91 -73 -10 0 -160 244 -160 260 0 19 204 231 219 228 8
-2 51 -61 97 -133z m-8210 -206 c57 -50 104 -96 103 -103 0 -6 -31 -63 -68
-126 -45 -77 -73 -115 -84 -114 -25 2 -216 157 -217 176 0 24 142 258 157 258
2 0 52 -41 109 -91z m7951 -35 c40 -65 72 -125 73 -132 0 -13 -208 -182 -226
-182 -11 0 -144 228 -144 247 0 16 202 194 214 190 6 -2 43 -57 83 -123z
m-8381 -35 c63 -56 114 -106 114 -112 0 -20 -151 -277 -163 -277 -13 0 -237
173 -248 192 -9 14 4 41 93 185 38 62 74 113 80 113 6 0 62 -45 124 -101z
m8833 -35 c45 -75 81 -144 79 -153 -4 -21 -229 -201 -247 -198 -14 2 -34 34
-140 219 l-32 58 43 39 c162 145 193 171 203 171 6 0 48 -61 94 -136z m-7844
84 c50 -219 95 -419 95 -427 0 -28 -34 -7 -245 146 -13 10 -25 26 -25 37 0 27
139 266 156 266 7 0 16 -10 19 -22z m6739 -99 c38 -66 70 -130 70 -142 1 -16
-29 -43 -119 -109 -66 -48 -126 -88 -132 -88 -7 0 -13 8 -13 18 0 15 85 400
95 430 11 30 35 4 99 -109z m-7059 -78 c52 -41 95 -78 95 -83 0 -19 -121 -248
-131 -248 -15 0 -207 141 -213 156 -2 6 20 56 51 110 72 130 83 146 93 142 5
-2 52 -36 105 -77z m7460 -39 c33 -59 60 -116 60 -127 0 -28 -194 -173 -214
-160 -15 8 -121 220 -121 239 0 18 188 166 204 160 6 -2 39 -53 71 -112z
m-7860 -55 c55 -43 101 -82 103 -87 5 -14 -127 -270 -142 -276 -15 -6 -222
139 -239 167 -8 12 7 46 63 145 40 71 77 132 83 136 14 8 12 9 132 -85z m8303
-71 c35 -64 61 -120 57 -125 -9 -15 -217 -163 -235 -168 -11 -2 -34 34 -83
129 -37 73 -68 138 -68 144 1 6 52 51 113 99 l113 87 20 -26 c11 -14 48 -77
83 -140z m-5704 112 c-21 -24 -75 -79 -119 -123 -45 -44 -188 -190 -318 -323
-130 -134 -240 -241 -245 -238 -14 8 -53 161 -46 177 3 8 67 57 141 109 75 52
240 172 367 267 127 95 237 172 245 173 7 0 -4 -19 -25 -42z m3068 -109 c112
-84 278 -205 370 -271 92 -65 170 -122 172 -127 6 -9 -37 -168 -48 -178 -6 -6
-693 685 -709 713 -19 32 23 6 215 -137z m-6122 -28 c66 -52 120 -100 120
-107 0 -21 -143 -303 -156 -308 -17 -7 -274 182 -274 201 0 9 28 66 62 127 83
150 107 188 118 184 5 -2 64 -45 130 -97z m9214 -52 c47 -83 86 -156 86 -163
0 -11 -208 -169 -257 -194 -20 -11 -25 -4 -102 142 -45 85 -81 157 -81 160 0
8 250 206 260 206 5 0 47 -68 94 -151z m-8082 35 c73 -52 139 -101 145 -107
13 -13 93 -322 93 -358 0 -10 -4 -19 -8 -19 -22 0 -512 326 -512 340 0 12 97
209 112 228 6 6 16 12 24 12 7 0 73 -43 146 -96z m6948 -23 c32 -63 56 -119
54 -125 -4 -11 -254 -180 -422 -286 -48 -31 -87 -49 -92 -44 -5 5 10 86 35
189 36 151 47 182 66 195 13 8 78 54 144 102 66 48 128 86 139 85 13 -1 36
-37 76 -116z m-3560 -336 c13 -358 33 -761 56 -1092 8 -128 13 -237 10 -241
-3 -5 -26 -17 -50 -26 -43 -17 -47 -17 -91 3 -54 24 -52 5 -30 316 17 257 41
724 55 1105 17 453 31 434 50 -65z m-3830 295 c135 -97 129 -82 83 -186 -22
-49 -48 -110 -58 -136 -11 -31 -24 -48 -34 -48 -18 0 -221 133 -233 152 -10
17 124 278 142 278 8 0 53 -27 100 -60z m7787 -65 c35 -66 62 -129 61 -140 -4
-30 -228 -180 -243 -163 -16 18 -117 266 -113 277 7 20 194 150 212 148 14 -1
38 -36 83 -122z m-8192 -67 c63 -46 114 -87 115 -93 0 -20 -128 -309 -139
-313 -12 -4 -230 139 -257 169 -14 15 -8 32 60 168 47 93 82 151 91 151 8 0
67 -37 130 -82z m8633 -57 c39 -76 72 -148 72 -159 0 -16 -32 -43 -124 -107
-68 -47 -130 -85 -138 -85 -16 0 -130 261 -132 302 -1 24 14 38 109 107 61 44
117 80 125 81 9 0 42 -53 88 -139z m-7406 -4 c86 -56 164 -106 173 -112 10 -6
29 -58 51 -140 l34 -130 -30 -27 c-20 -18 -36 -25 -47 -21 -32 12 -260 152
-273 168 -13 16 -89 306 -90 343 0 12 6 22 13 22 6 0 82 -46 169 -103z m6148
92 c0 -6 -18 -87 -41 -180 -47 -194 -26 -167 -215 -279 l-117 -70 -31 20 c-17
10 -32 27 -33 37 -1 10 12 72 30 137 l32 120 175 113 c171 110 200 125 200
102z m-6576 -170 c127 -83 249 -163 270 -178 38 -25 41 -31 72 -149 51 -193
50 -178 12 -202 -18 -11 -38 -20 -45 -20 -13 0 -309 178 -522 315 -150 96
-153 99 -148 129 9 56 100 256 116 256 8 0 118 -68 245 -151z m7128 34 c76
-176 83 -153 -84 -260 -228 -146 -520 -323 -535 -323 -27 0 -73 31 -73 49 0
22 57 245 71 281 7 17 65 60 176 130 91 58 209 135 262 172 53 37 105 67 116
65 14 -1 31 -30 67 -114z m-8396 -30 c73 -53 134 -101 134 -105 0 -5 -14 -39
-31 -76 -101 -221 -185 -470 -209 -625 -15 -93 -8 -238 14 -288 77 -180 304
-202 666 -64 52 20 101 34 109 32 23 -4 -62 -53 -274 -156 -218 -107 -363
-164 -515 -203 -101 -26 -129 -29 -225 -26 -123 4 -164 19 -222 80 -48 51 -65
101 -70 213 -11 208 73 496 264 909 85 185 202 406 214 406 6 0 71 -44 145
-97z m9531 55 c50 -80 231 -463 297 -630 209 -527 205 -837 -11 -918 -136 -51
-375 -9 -673 117 -130 55 -456 221 -471 239 -18 22 4 18 110 -22 159 -60 273
-85 388 -87 94 -1 105 1 160 29 202 103 186 426 -47 960 -33 77 -60 144 -60
151 0 11 257 203 272 203 4 0 20 -19 35 -42z m-8789 -113 c61 -42 113 -79 116
-83 2 -4 -7 -46 -20 -92 -14 -47 -31 -122 -38 -168 -7 -45 -16 -85 -19 -89 -6
-5 -78 39 -259 158 -21 13 -39 29 -42 35 -4 11 47 145 97 257 14 31 32 57 40
57 8 0 64 -34 125 -75z m8054 -27 c65 -148 81 -195 75 -212 -6 -14 -143 -108
-250 -170 -53 -32 -50 -35 -67 69 -6 39 -23 112 -37 163 -14 51 -24 94 -22 96
22 22 228 155 240 156 12 0 30 -31 61 -102z m-6283 -66 l22 -82 -21 -29 c-11
-16 -34 -41 -51 -55 l-31 -27 -67 37 c-85 47 -92 55 -94 95 -2 32 3 37 98 101
78 54 102 65 111 56 6 -7 21 -50 33 -96z m4489 30 c75 -51 92 -67 87 -83 -3
-10 -7 -27 -10 -37 -3 -10 -39 -38 -81 -61 l-76 -44 -51 52 -52 51 23 86 c23
92 37 118 56 106 6 -4 53 -35 104 -70z m-4975 -12 c45 -27 77 -52 77 -61 0
-21 -104 -93 -123 -86 -12 4 -57 153 -57 187 0 17 17 10 103 -40z m4753 -117
c-8 -8 -30 16 -118 122 -29 35 -17 26 42 -32 46 -45 81 -86 76 -90z m648 159
c7 -11 -38 -180 -51 -193 -10 -10 -133 73 -133 90 0 9 157 110 172 111 4 0 9
-4 12 -8z m-4752 -59 c-59 -68 -106 -113 -101 -96 6 19 129 153 141 153 5 0
-13 -26 -40 -57z m-2376 -61 c150 -102 144 -87 100 -247 -33 -119 -46 -298
-26 -361 56 -178 225 -214 536 -113 202 66 192 49 -46 -71 -400 -201 -672
-266 -822 -197 -185 84 -184 357 2 822 66 166 108 255 118 255 5 0 67 -40 138
-88z m8931 18 c96 -193 192 -487 214 -652 50 -382 -185 -478 -686 -281 -114
44 -430 200 -446 219 -18 21 8 18 87 -12 179 -67 367 -87 454 -48 141 64 173
229 100 509 -18 66 -33 128 -33 137 -2 17 249 199 268 195 6 -2 24 -32 42 -67z
m-6513 28 c-4 -7 -30 -40 -58 -73 -27 -33 -51 -62 -52 -64 -2 -1 -9 -1 -16 1
-8 3 13 32 56 76 68 70 85 85 70 60z m-1509 -194 c326 -204 325 -203 325 -213
0 -15 -210 -102 -329 -135 -62 -18 -43 -26 -245 97 l-149 91 6 76 c7 86 52
261 70 272 6 4 25 -2 42 -13 16 -10 143 -90 280 -175z m5499 132 c31 -35 56
-67 56 -70 0 -18 -22 1 -74 64 -72 88 -58 92 18 6z m1801 -59 c13 -54 27 -126
31 -161 6 -63 6 -63 -27 -88 -19 -14 -95 -62 -169 -107 l-136 -82 -85 25
c-113 33 -293 110 -297 127 -1 8 52 47 130 94 73 44 216 133 318 197 150 96
187 116 197 105 7 -7 24 -57 38 -110z m-5811 17 c-66 -84 -94 -109 -94 -84 0
14 151 182 158 175 3 -2 -26 -44 -64 -91z m4056 -84 c0 -26 -31 -2 -85 67 -93
119 -94 125 -1 30 47 -48 86 -92 86 -97z m-4527 100 c30 -18 36 -29 61 -120
l28 -100 -26 -35 c-46 -60 -51 -60 -169 7 -98 55 -108 63 -119 99 -8 30 -9 42
0 51 15 15 174 116 184 117 4 1 22 -8 41 -19z m5044 -43 c45 -29 85 -58 88
-65 3 -7 -1 -28 -9 -47 -14 -32 -58 -63 -191 -134 l-39 -21 -38 37 c-39 38
-45 59 -29 109 5 16 17 55 26 87 12 46 23 62 48 77 38 24 38 24 144 -43z
m-5530 -8 c110 -65 115 -70 105 -85 -13 -19 -141 -104 -156 -104 -10 0 -19 16
-26 43 -6 23 -20 74 -31 113 -22 82 -23 94 -7 94 6 0 58 -28 115 -61z m5995
56 c6 -6 -44 -214 -56 -234 -4 -6 -12 -11 -17 -11 -20 0 -160 102 -156 113 4
13 195 135 213 136 6 1 13 -1 16 -4z m-5192 -42 c0 -11 -51 -73 -61 -73 -17 0
-9 24 18 52 26 27 43 35 43 21z m4314 -24 c26 -31 33 -49 18 -49 -12 0 -62 54
-62 68 0 21 17 13 44 -19z m-4498 -15 c24 -14 44 -33 44 -41 0 -20 -59 -78
-69 -67 -13 13 -38 108 -33 122 5 16 7 16 58 -14z m4685 -41 c-18 -69 -29 -79
-58 -51 -49 45 -48 55 4 88 58 37 70 29 54 -37z m-6410 -62 l153 -99 11 -49
c17 -76 48 -118 109 -148 47 -23 64 -26 150 -24 95 1 126 -7 126 -36 0 -6 -44
-30 -97 -53 -204 -87 -335 -123 -448 -124 -134 -1 -207 42 -240 143 -24 71
-16 219 19 353 28 103 41 136 55 136 5 0 78 -44 162 -99z m8270 72 c26 -68 60
-225 65 -303 11 -147 -34 -247 -129 -285 -58 -24 -172 -22 -282 5 -132 31
-395 138 -395 160 0 22 48 34 127 31 163 -5 233 42 267 178 11 44 15 47 161
142 83 54 156 98 163 98 7 1 17 -11 23 -26z m-6351 -3 c-10 -19 -40 -28 -40
-12 0 13 23 32 37 32 11 0 11 -5 3 -20z m4277 5 c3 -9 3 -19 -1 -22 -7 -7 -36
16 -36 28 0 15 30 10 37 -6z m-4377 -34 c0 -12 -71 -98 -87 -105 -31 -13 -20
18 23 64 45 48 64 60 64 41z m4509 -36 c38 -41 53 -75 33 -75 -12 0 -92 96
-92 109 0 21 18 11 59 -34z m441 35 c0 -5 -4 -10 -10 -10 -5 0 -10 5 -10 10 0
6 5 10 10 10 6 0 10 -4 10 -10z m-5444 -40 c18 -12 35 -29 38 -38 3 -9 21 -75
41 -146 36 -129 36 -130 17 -155 -11 -14 -26 -27 -36 -29 -9 -2 -81 34 -161
79 -138 79 -146 85 -156 122 -6 22 -8 45 -6 52 6 15 197 134 216 135 7 0 29
-9 47 -20z m534 9 c0 -18 -102 -139 -117 -139 -24 0 -13 23 43 86 54 62 74 76
74 53z m4443 -55 c51 -59 62 -84 37 -84 -10 0 -120 130 -120 142 0 23 33 1 83
-58z m618 4 c54 -35 101 -68 103 -75 6 -15 -12 -73 -28 -90 -18 -19 -276 -163
-293 -163 -18 0 -52 39 -52 60 0 8 17 76 38 150 34 123 40 137 71 158 18 12
40 22 48 22 8 0 59 -28 113 -62z m-5011 27 c0 -20 -128 -190 -143 -190 -29 0
-12 37 54 118 70 86 89 101 89 72z m4346 -58 c28 -34 58 -74 68 -89 17 -26 15
-48 -3 -48 -14 0 -152 190 -146 200 10 15 28 1 81 -63z m-4258 -63 c47 -143
67 -222 58 -231 -9 -9 -237 110 -250 131 -7 10 -2 25 17 53 60 85 119 154 130
151 7 -2 27 -49 45 -104z m4223 11 c39 -52 69 -100 67 -106 -4 -13 -235 -139
-255 -139 -16 0 -16 6 1 61 8 24 31 97 51 162 24 78 41 117 50 117 8 0 47 -43
86 -95z m444 -41 c-15 -55 -31 -103 -37 -109 -6 -7 -28 10 -64 50 -30 33 -54
65 -54 71 0 15 163 105 173 95 5 -5 -3 -53 -18 -107z m-5165 66 c38 -22 71
-44 74 -49 6 -10 -92 -131 -105 -131 -12 0 -18 14 -44 102 -40 136 -34 142 75
78z m1105 -260 c426 -211 726 -346 1205 -543 54 -23 55 -24 58 -67 1 -25 -2
-51 -6 -58 -11 -16 -186 -82 -219 -82 -28 0 -164 56 -493 202 -389 174 -1050
497 -1050 514 0 2 -21 71 -46 154 -26 82 -44 156 -40 165 4 13 30 3 138 -56
73 -39 277 -142 453 -229z m3430 128 c-26 -84 -52 -159 -58 -166 -16 -20 -533
-277 -837 -417 -351 -162 -665 -295 -694 -295 -30 0 -196 58 -213 74 -14 14
-26 88 -16 101 5 6 94 46 198 89 460 191 1016 451 1430 669 125 66 224 112
229 107 5 -5 -11 -73 -39 -162z m-4341 134 c8 -13 -23 -52 -40 -52 -19 0 -18
19 3 42 18 20 29 23 37 10z m4740 -14 c19 -27 20 -38 4 -38 -16 0 -48 31 -48
47 0 21 27 15 44 -9z m-6103 -94 c60 -36 109 -72 109 -80 0 -20 -89 -19 -138
1 -63 27 -112 86 -112 136 0 27 6 25 141 -57z m7562 41 c-3 -34 -45 -90 -85
-111 -34 -18 -128 -30 -154 -20 -15 6 -16 9 -3 21 24 25 223 144 234 141 6 -2
9 -15 8 -31z m-6853 10 c0 -8 -7 -15 -15 -15 -8 0 -15 7 -15 15 0 8 7 15 15
15 8 0 15 -7 15 -15z m6038 3 c-6 -18 -28 -21 -28 -4 0 9 7 16 16 16 9 0 14
-5 12 -12z m-5368 -13 c0 -8 -4 -15 -10 -15 -5 0 -10 7 -10 15 0 8 5 15 10 15
6 0 10 -7 10 -15z m4690 -6 c0 -5 -7 -9 -15 -9 -15 0 -20 12 -9 23 8 8 24 -1
24 -14z m-5384 -24 c48 -28 39 -8 118 -285 40 -138 44 -170 21 -170 -9 0 -103
50 -211 110 -241 136 -274 157 -274 173 0 10 283 196 299 197 2 0 24 -11 47
-25z m609 16 c7 -13 -118 -166 -135 -166 -30 0 -18 27 45 99 66 75 78 85 90
67z m4924 -63 c58 -68 76 -108 49 -108 -15 1 -138 151 -138 169 0 28 33 5 89
-61z m721 -21 c80 -51 145 -99 145 -107 0 -8 -76 -58 -170 -112 -261 -149
-312 -175 -325 -162 -8 8 5 66 46 210 31 109 61 205 67 212 10 12 76 51 87 51
3 0 70 -41 150 -92z m-5590 50 c0 -7 -36 -61 -81 -120 -66 -87 -84 -105 -95
-96 -8 6 -14 17 -14 23 0 6 37 55 81 109 74 89 109 117 109 84z m4831 -78 c69
-85 92 -134 64 -141 -13 -4 -176 212 -169 223 13 21 34 4 105 -82z m-4775 47
c6 -17 -132 -230 -152 -234 -8 -2 -22 2 -30 9 -17 14 -14 21 84 152 64 84 87
102 98 73z m4726 -91 c80 -103 92 -137 52 -143 -18 -3 -35 17 -93 105 -39 59
-71 116 -71 126 0 38 36 9 112 -88z m-5727 69 c-69 -53 -170 -82 -163 -47 3
16 118 60 163 62 l20 0 -20 -15z m6702 -7 c86 -28 94 -34 69 -52 -16 -12 -27
-10 -86 20 -112 57 -104 70 17 32z m-6192 -51 c61 -35 111 -70 113 -77 1 -8
-32 -56 -74 -107 -63 -77 -79 -91 -89 -80 -11 11 -95 293 -95 318 0 21 39 6
145 -54z m5745 60 c0 -16 -91 -321 -98 -328 -6 -6 -41 28 -92 88 -72 86 -80
99 -66 112 40 40 256 149 256 128z m-5044 -80 l139 -75 62 -183 c34 -100 58
-187 54 -191 -5 -5 -78 27 -162 70 l-154 78 -52 170 c-56 181 -61 205 -40 205
7 0 76 -33 153 -74z m4364 64 c0 -8 -58 -201 -101 -337 -9 -29 -26 -41 -164
-110 -85 -43 -157 -74 -161 -70 -7 7 95 326 116 367 10 18 268 159 293 159 9
1 17 -3 17 -9z m-4504 -177 c24 -76 41 -144 39 -151 -6 -16 -225 93 -225 113
0 7 27 54 61 105 43 66 63 90 71 82 6 -6 30 -73 54 -149z m4608 57 c45 -69 56
-93 47 -103 -6 -7 -56 -37 -111 -66 -80 -42 -101 -49 -106 -38 -4 12 67 264
83 290 12 19 33 -1 87 -83z m-4954 14 c0 -8 -9 -14 -20 -14 -22 0 -26 10 -8
28 13 13 28 7 28 -14z m5200 0 c0 -8 -7 -14 -15 -14 -15 0 -21 21 -9 33 10 9
24 -2 24 -19z m-5240 -49 c0 -21 -181 -256 -194 -252 -6 2 -12 14 -14 28 -3
31 161 239 190 239 10 0 18 -7 18 -15z m5372 -95 c48 -58 88 -112 88 -120 0
-24 -17 -43 -30 -35 -23 14 -190 247 -184 256 13 22 43 -1 126 -101z m-5313
67 c8 -11 -8 -43 -72 -142 -46 -71 -88 -130 -94 -132 -5 -2 -20 4 -32 14 l-23
19 57 79 c70 97 134 175 145 175 4 0 13 -6 19 -13z m765 -36 c200 -108 817
-397 1170 -548 88 -38 161 -74 163 -80 5 -13 -351 -133 -393 -133 -28 0 -481
206 -749 340 l-189 95 -58 165 c-58 167 -67 210 -47 210 6 0 53 -22 103 -49z
m3716 35 c0 -8 -28 -94 -62 -192 l-61 -177 -212 -102 c-322 -156 -698 -325
-723 -325 -40 0 -393 121 -389 133 2 7 104 56 228 110 339 147 594 266 909
423 157 79 291 143 298 143 6 1 12 -5 12 -13z m770 -106 c49 -65 90 -126 90
-134 0 -9 -10 -20 -21 -27 -28 -14 -36 -6 -129 138 -69 109 -80 143 -46 143 9
0 56 -54 106 -120z m-5171 66 c12 -14 5 -46 -10 -46 -12 0 -31 39 -24 50 9 14
21 12 34 -4z m4999 -13 c-2 -17 -9 -28 -18 -28 -19 0 -26 35 -8 46 23 15 29
10 26 -18z m-5044 -57 c9 -32 5 -46 -29 -119 -54 -112 -56 -114 -97 -90 -20
12 -33 27 -32 39 0 27 124 216 138 211 6 -2 15 -20 20 -41z m233 -25 l122 -63
67 -202 c37 -110 69 -207 72 -213 2 -7 -3 -13 -12 -13 -21 0 -304 141 -333
166 -15 13 -36 66 -67 167 l-46 148 21 40 c13 27 26 39 37 37 9 -2 72 -32 139
-67z m4764 37 c25 -41 23 -58 -30 -226 l-42 -131 -163 -86 c-152 -79 -196 -97
-196 -77 0 4 31 100 68 212 l68 205 125 67 c68 37 130 67 137 67 7 1 21 -14
33 -31z m169 -84 c34 -53 59 -102 56 -110 -6 -14 -73 -51 -80 -43 -2 2 -24 48
-50 102 -44 96 -45 100 -31 134 19 45 25 40 105 -83z m-5103 -124 c19 -60 29
-108 24 -113 -11 -11 -130 48 -137 68 -8 19 56 157 70 152 6 -2 25 -50 43
-107z m5024 32 c17 -36 28 -70 25 -76 -6 -16 -134 -82 -142 -73 -7 7 27 135
52 195 18 43 29 35 65 -46z m-5403 15 c2 -10 -36 -79 -86 -155 -262 -403 -374
-692 -360 -929 12 -190 103 -314 290 -391 125 -52 200 -63 454 -69 l232 -5 72
-174 c40 -95 70 -180 67 -187 -5 -14 -143 -36 -347 -57 -145 -15 -440 -12
-555 5 -497 74 -660 348 -498 840 85 260 285 605 578 998 84 113 115 147 130
145 11 -2 21 -11 23 -21z m880 -46 c76 -38 143 -75 149 -83 7 -7 27 -56 46
-108 19 -52 53 -141 76 -198 44 -110 47 -122 30 -122 -19 0 -313 146 -326 161
-11 14 -143 392 -143 411 0 18 36 5 168 -61z m4095 63 c5 -6 -113 -367 -133
-405 -10 -17 -308 -169 -333 -169 -14 0 -5 29 75 239 l74 194 144 73 c144 73
161 79 173 68z m860 -129 c421 -558 647 -1021 647 -1327 0 -301 -191 -474
-583 -527 -99 -14 -393 -14 -528 -1 -179 18 -334 41 -346 53 -8 9 6 54 61 187
l73 175 229 6 c236 6 284 13 416 55 288 94 394 324 304 659 -56 207 -148 395
-339 688 -75 116 -87 140 -77 153 7 8 20 13 29 12 9 -2 60 -62 114 -133z
m-5748 81 c18 -13 18 -15 1 -41 -20 -31 -33 -24 -42 23 -7 36 8 43 41 18z
m5559 5 c8 -12 -14 -71 -25 -71 -5 0 -15 12 -21 26 -11 22 -10 28 7 40 22 16
32 17 39 5z m-5429 -80 c3 -5 -3 -42 -14 -81 -11 -38 -23 -102 -27 -141 -4
-42 -11 -68 -17 -66 -13 4 -77 200 -77 235 0 25 14 57 37 84 14 16 18 16 54
-2 20 -11 40 -24 44 -29z m-185 13 c17 -42 12 -67 -29 -150 -88 -181 -125
-328 -119 -472 5 -115 31 -183 98 -256 54 -58 171 -118 276 -141 125 -27 112
-12 188 -215 56 -148 66 -184 55 -191 -8 -5 -86 -9 -174 -9 -329 0 -526 58
-649 191 -82 88 -100 144 -100 299 1 142 20 221 100 410 72 172 302 560 332
560 7 0 17 -12 22 -26z m5562 -18 l21 -45 -33 -110 c-19 -61 -37 -117 -42
-123 -13 -21 -28 11 -28 63 0 25 -9 81 -20 124 -25 99 -25 97 8 117 48 29 70
23 94 -26z m156 -43 c262 -392 399 -756 364 -969 -37 -222 -203 -348 -517
-394 -38 -5 -146 -10 -238 -10 -140 0 -169 2 -173 15 -5 11 117 358 130 372 1
1 44 11 96 22 216 48 344 149 385 306 38 149 -8 370 -127 608 -26 53 -28 61
-17 97 7 22 18 40 25 40 8 0 40 -39 72 -87z m-5410 -12 c43 -22 83 -45 89 -53
10 -12 173 -494 173 -511 0 -15 -70 -6 -141 18 -237 80 -316 258 -234 533 9
28 20 52 26 52 5 0 44 -18 87 -39z m5126 -21 c15 -42 20 -83 20 -175 1 -111
-1 -124 -26 -170 -27 -50 -80 -107 -130 -138 -39 -24 -171 -67 -207 -67 -18 0
-31 5 -31 12 0 16 158 489 168 504 12 17 156 94 172 91 8 -1 24 -27 34 -57z
m-4198 -52 c93 -45 275 -130 404 -189 145 -66 236 -113 238 -123 2 -9 2 -16 0
-16 -2 0 -101 -25 -221 -55 -119 -30 -228 -55 -241 -55 -13 0 -66 20 -118 44
l-95 44 -52 133 c-107 271 -116 299 -91 299 4 0 83 -37 176 -82z m3344 67 c0
-16 -123 -342 -147 -388 -10 -20 -40 -41 -106 -73 -109 -54 -100 -54 -357 10
-191 49 -230 61 -230 74 0 5 91 50 203 101 111 50 294 136 407 190 113 55 211
100 218 100 6 1 12 -6 12 -14z m-4527 -96 c10 -30 74 -224 142 -433 69 -208
125 -385 125 -392 0 -19 -22 -18 -109 6 -161 45 -249 108 -303 217 -57 117
-50 279 22 473 43 115 81 191 93 187 7 -2 20 -28 30 -58z m5594 -9 c48 -100
94 -245 106 -341 25 -201 -47 -344 -215 -424 -78 -38 -214 -73 -228 -59 -5 5
35 141 94 314 56 168 121 367 145 443 26 86 47 137 54 135 7 -2 26 -33 44 -68z
m-5013 -58 l170 -87 59 -159 c46 -125 56 -161 45 -167 -7 -5 -73 -9 -145 -9
-115 0 -135 2 -151 18 -10 10 -50 112 -90 228 -85 247 -89 264 -71 264 8 -1
90 -40 183 -88z m2114 76 c-3 -7 -11 -13 -18 -13 -7 0 -15 6 -17 13 -3 7 4 12
17 12 13 0 20 -5 18 -12z m162 -3 c0 -8 -6 -15 -14 -15 -17 0 -28 14 -19 24
12 12 33 6 33 -9z m2274 6 c9 -14 -153 -475 -171 -488 -25 -19 -292 -18 -299
1 -6 15 98 302 116 320 14 14 323 175 337 176 6 0 14 -4 17 -9z m-2307 -40
c45 -21 45 -20 56 -154 5 -54 -4 -64 -80 -91 -39 -14 -46 -13 -100 8 l-58 23
3 89 c4 97 11 111 65 131 45 16 66 15 114 -6z m-257 -94 c0 -47 -10 -77 -26
-77 -22 0 -124 48 -124 59 0 8 46 29 120 53 23 8 30 0 30 -35z m457 22 c90
-33 96 -44 37 -69 -27 -12 -60 -22 -73 -23 -22 -2 -26 3 -33 43 -8 42 -5 70 6
70 3 0 31 -10 63 -21z m-566 -93 l84 -35 -2 -56 c-3 -82 -15 -95 -130 -134
l-101 -35 -173 75 c-95 41 -174 79 -176 85 -4 12 343 131 388 133 14 1 63 -14
110 -33z m913 -25 c98 -33 183 -64 188 -69 13 -13 10 -14 -185 -97 -175 -74
-158 -72 -292 -24 -82 30 -85 32 -95 71 -6 21 -10 56 -8 76 3 35 5 37 83 69
44 17 91 32 105 32 14 1 105 -26 204 -58z m-2402 -39 c149 -72 165 -82 181
-116 30 -65 26 -73 -54 -86 -38 -7 -100 -13 -136 -13 l-66 -2 -53 140 c-46
122 -54 155 -39 155 2 0 77 -35 167 -78z m3758 63 c0 -24 -90 -259 -105 -274
-13 -13 -30 -13 -135 1 -67 8 -126 20 -132 26 -7 7 -3 25 10 56 20 45 24 47
182 126 89 44 166 80 171 80 5 0 9 -7 9 -15z m-2033 -98 c7 -11 -24 -37 -44
-37 -19 0 -27 28 -14 44 12 15 47 11 58 -7z m191 -10 c4 -30 -3 -32 -45 -16
l-28 11 24 19 c30 25 45 20 49 -14z m-817 -71 c96 -41 175 -81 177 -89 2 -9
-58 -33 -205 -80 -114 -37 -220 -67 -234 -67 -24 0 -350 140 -377 163 -7 5 -9
14 -5 18 5 5 89 29 188 54 99 25 200 51 225 59 25 8 48 15 51 15 3 1 84 -32
180 -73z m1809 8 c118 -31 219 -59 223 -63 4 -4 2 -12 -5 -18 -30 -23 -356
-163 -379 -163 -31 0 -428 125 -442 139 -13 13 2 21 188 101 95 41 168 67 180
64 11 -2 117 -30 235 -60z m-3575 -73 c33 -16 94 -37 135 -46 41 -9 81 -20 89
-24 8 -4 41 -78 74 -165 45 -120 56 -161 48 -169 -8 -8 -63 -12 -166 -12 -126
0 -157 3 -170 16 -17 17 -175 468 -175 500 0 17 9 13 53 -26 28 -25 79 -59
112 -74z m2530 98 c31 -12 58 -26 61 -32 7 -22 22 -180 17 -193 -2 -6 -38 -24
-79 -39 l-74 -27 -73 29 -72 30 3 89 c2 49 9 97 16 108 13 20 87 53 123 55 12
1 47 -8 78 -20z m2555 7 c0 -23 -161 -490 -174 -503 -29 -31 -346 -27 -346 4
0 19 98 281 115 309 9 14 35 25 92 37 101 22 207 74 258 126 41 43 55 50 55
27z m-4145 -53 c43 -20 45 -39 5 -48 -35 -8 -48 -1 -60 29 -15 39 1 45 55 19z
m3095 -1 c0 -36 -24 -55 -58 -47 -46 10 -48 22 -5 44 48 25 63 26 63 3z
m-1828 -73 c-2 -24 -7 -48 -12 -53 -13 -13 -114 27 -118 47 -2 10 14 21 55 35
32 11 63 19 68 18 6 -2 9 -23 7 -47z m596 20 c24 -11 42 -24 40 -30 -5 -15
-97 -51 -114 -45 -15 6 -29 69 -20 92 6 17 20 15 94 -17z m-1573 -80 c199 -90
218 -102 189 -117 -26 -13 -336 -92 -363 -92 -18 0 -32 20 -77 116 -30 63 -54
124 -54 134 0 14 11 21 43 28 71 16 76 15 262 -69z m2743 64 c12 -3 22 -12 22
-20 0 -8 -25 -68 -56 -134 -52 -108 -59 -119 -83 -119 -15 0 -103 20 -195 45
-93 25 -171 45 -173 45 -1 0 -3 6 -3 14 0 7 79 49 188 99 196 90 206 92 300
70z m-3081 -25 c5 -7 34 -66 63 -131 37 -80 50 -121 44 -127 -6 -6 -66 -22
-133 -36 -105 -23 -125 -24 -137 -12 -20 19 -115 249 -112 267 3 12 30 20 113
32 143 21 151 21 162 7z m3301 -9 c59 -7 106 -17 108 -24 5 -13 -92 -253 -111
-273 -10 -12 -34 -9 -141 12 -70 15 -132 30 -136 34 -8 8 91 231 115 260 6 8
22 12 36 9 14 -3 73 -11 129 -18z m-2101 -20 c43 -17 82 -34 87 -39 12 -12
-22 -177 -40 -195 -13 -13 -158 -65 -181 -65 -26 0 -393 163 -393 175 0 8 82
40 213 83 116 38 218 70 224 71 7 1 47 -13 90 -30z m1007 -28 c100 -33 198
-65 219 -71 20 -6 37 -17 37 -24 0 -7 -87 -50 -196 -96 l-196 -83 -89 28 c-50
16 -94 34 -98 40 -13 16 -43 151 -39 176 2 17 20 30 78 55 41 18 81 33 89 33
8 1 96 -26 195 -58z m-2516 17 c5 -7 33 -71 62 -141 36 -88 49 -132 42 -139
-9 -9 -108 -26 -239 -41 -24 -3 -48 0 -56 7 -18 14 -129 304 -121 317 9 15
300 11 312 -3z m4062 -5 c0 -28 -111 -311 -123 -316 -13 -5 -124 7 -229 24
-53 8 -68 15 -68 28 0 9 22 68 48 131 27 63 51 123 55 133 6 15 23 17 162 17
141 0 155 -2 155 -17z m-2254 -103 c2 0 4 -6 4 -14 0 -15 -84 -49 -94 -38 -10
10 -6 58 6 70 8 8 20 7 46 -3 19 -8 36 -15 38 -15z m234 -21 c0 -39 -11 -42
-66 -19 -52 23 -50 35 9 56 39 14 57 3 57 -37z m-922 -79 c110 -47 192 -88
192 -96 0 -8 -69 -35 -187 -73 -233 -74 -461 -141 -482 -141 -15 0 -57 63
-142 216 -12 22 -20 47 -17 56 4 10 51 26 136 47 71 18 165 43 208 56 44 13
84 22 89 21 6 -2 97 -41 203 -86z m1952 25 c126 -34 196 -57 198 -66 3 -18
-129 -249 -150 -262 -18 -12 -100 10 -433 115 -244 77 -262 85 -247 100 24 24
397 177 417 171 11 -4 108 -30 215 -58z m-1459 -8 c-13 -13 -15 11 -4 40 7 16
8 15 11 -6 2 -13 -1 -28 -7 -34z m344 27 c38 -15 75 -32 81 -38 7 -6 17 -53
23 -105 10 -76 9 -97 -1 -107 -7 -6 -52 -26 -100 -44 l-86 -33 -96 37 c-93 37
-96 38 -96 69 1 59 21 172 33 184 14 13 134 61 157 62 8 1 46 -11 85 -25z
m194 -21 c1 -7 -3 -13 -9 -13 -5 0 -10 15 -9 33 0 27 2 29 9 12 5 -11 9 -26 9
-32z m-1664 -135 c21 -40 54 -98 72 -128 39 -65 41 -85 11 -94 -161 -45 -261
-66 -272 -56 -22 17 -139 281 -129 291 9 9 212 56 253 58 22 1 31 -10 65 -71z
m1112 20 c-7 -57 -20 -79 -38 -61 -11 11 -9 18 16 101 3 6 10 12 16 12 8 0 10
-15 6 -52z m586 5 c14 -48 12 -73 -4 -73 -13 0 -26 30 -34 78 -5 34 -4 42 9
42 9 0 20 -18 29 -47z m1267 22 c68 -14 124 -25 126 -25 23 0 -104 -293 -131
-304 -15 -6 -274 59 -287 72 -11 11 139 282 157 282 7 0 67 -11 135 -25z
m-1910 -18 c0 -13 -6 -31 -13 -41 -12 -17 -16 -17 -50 -2 -46 19 -47 40 -4 54
53 17 67 15 67 -11z m735 9 c45 -19 44 -32 -2 -51 -42 -18 -57 -10 -68 38 -6
23 -4 27 14 27 12 0 37 -7 56 -14z m-2079 -170 c35 -76 64 -144 64 -151 0 -17
-3 -18 -164 -50 -127 -25 -140 -26 -151 -12 -19 27 -129 306 -123 312 3 4 57
13 119 21 63 8 121 16 129 18 53 14 60 6 126 -138z m3614 120 c53 -7 101 -15
107 -19 9 -6 7 -24 -11 -70 -42 -110 -97 -232 -110 -245 -11 -11 -36 -9 -150
14 -75 15 -143 32 -151 38 -13 10 -7 30 48 146 82 177 71 163 126 155 25 -4
89 -13 141 -19z m-2374 -10 c32 -13 63 -31 68 -39 11 -17 -15 -95 -69 -213
l-33 -72 -243 -81 c-134 -44 -254 -81 -265 -81 -37 0 -234 230 -234 273 0 10
19 21 58 32 110 31 448 137 542 170 52 18 100 34 106 34 6 1 37 -10 70 -23z
m1149 -45 c117 -38 279 -88 359 -112 99 -29 146 -47 146 -56 0 -19 -102 -154
-167 -220 -30 -31 -60 -53 -72 -53 -41 0 -485 153 -507 175 -24 24 -104 224
-104 259 0 20 11 28 63 49 34 15 64 26 66 27 1 0 99 -31 216 -69z m-2796 23
c20 -21 131 -308 122 -317 -9 -9 -253 -47 -308 -47 -31 0 -32 1 -81 128 -80
205 -85 221 -79 234 6 16 331 18 346 2z m4518 -1 c4 -12 -115 -332 -130 -352
-9 -10 -28 -12 -81 -6 -124 12 -248 33 -259 44 -7 7 9 57 53 163 35 84 67 155
71 158 13 9 343 2 346 -7z m-2737 -55 c0 -11 -9 -60 -21 -108 -17 -73 -24 -89
-45 -99 -28 -12 -54 -15 -54 -4 0 16 85 229 94 235 15 10 26 0 26 -24z m673
-63 c14 -38 33 -87 41 -108 19 -43 8 -55 -37 -38 -27 11 -31 20 -61 150 -11
48 -12 68 -4 78 16 20 30 2 61 -82z m-642 -31 c-10 -64 -24 -95 -37 -81 -6 6
11 91 28 136 15 42 20 15 9 -55z m569 0 c13 -44 16 -72 10 -78 -14 -14 -21 -3
-31 46 -9 49 -12 114 -4 106 3 -3 14 -36 25 -74z m-416 45 c31 -12 56 -27 56
-34 0 -13 -100 -55 -131 -55 -21 0 -24 22 -13 79 8 37 15 38 88 10z m319 14
c3 -5 8 -29 12 -55 7 -44 6 -48 -13 -48 -27 0 -130 38 -138 51 -3 5 18 20 48
34 55 25 84 30 91 18z m-1398 -174 c27 -39 76 -100 108 -135 33 -35 57 -70 54
-77 -3 -7 -70 -32 -148 -55 -208 -60 -193 -58 -217 -25 -34 49 -152 264 -152
279 0 7 12 17 28 20 15 4 72 19 127 34 147 40 142 41 200 -41z m2613 37 c74
-19 136 -37 140 -41 12 -12 -160 -315 -179 -315 -26 0 -349 98 -349 106 0 2
32 41 71 87 39 45 89 108 112 139 22 32 47 58 56 58 9 0 76 -16 149 -34z
m-2985 -83 c60 -96 157 -275 153 -282 -3 -4 -75 -25 -161 -47 -114 -28 -159
-36 -171 -29 -18 12 -153 290 -153 317 -1 12 10 19 37 24 20 3 84 17 142 29
58 13 111 23 117 24 7 1 23 -16 36 -36z m1271 0 c-16 -92 -68 -319 -101 -438
-117 -429 -266 -695 -434 -779 -61 -30 -156 -35 -222 -12 -190 68 -416 332
-633 739 -25 49 -43 92 -38 96 11 10 292 81 319 81 14 0 43 -31 94 -101 147
-198 304 -318 430 -327 75 -5 126 10 193 58 113 81 220 267 308 540 28 85 52
161 55 168 2 6 11 12 20 12 13 0 15 -7 9 -37z m663 -83 c176 -588 418 -786
709 -582 81 58 156 136 249 262 56 75 72 90 94 89 14 0 89 -17 166 -37 107
-29 141 -41 143 -55 4 -18 -102 -211 -194 -355 -135 -210 -302 -385 -421 -444
-53 -26 -83 -34 -141 -37 -66 -3 -79 0 -137 28 -199 98 -373 465 -499 1053
-41 190 -42 201 -20 196 11 -2 27 -40 51 -118z m1382 90 c80 -17 150 -35 155
-40 11 -11 -132 -320 -153 -328 -21 -8 -322 68 -327 83 -3 7 12 41 34 76 21
35 60 103 86 152 26 48 50 87 53 87 3 0 71 -14 152 -30z m-2109 -7 c0 -32 -90
-285 -134 -378 -56 -119 -101 -189 -160 -248 -71 -70 -117 -91 -201 -92 -94 0
-176 39 -279 136 -80 75 -216 246 -216 272 0 9 15 20 33 26 114 36 308 91 322
91 8 0 33 -11 53 -24 166 -105 319 -59 444 133 47 72 79 98 121 100 10 1 17
-6 17 -16z m779 6 c23 -8 46 -32 80 -83 52 -77 119 -144 172 -172 24 -13 56
-19 109 -19 68 0 81 3 143 38 37 20 75 37 83 37 9 0 59 -13 112 -29 54 -17
130 -39 170 -51 42 -12 72 -26 72 -34 0 -16 -88 -135 -163 -220 -67 -76 -166
-150 -237 -177 -172 -65 -330 45 -460 325 -45 95 -130 339 -130 374 0 25 5 26
49 11z m-2351 -51 c27 -36 154 -320 145 -329 -11 -11 -284 -69 -325 -69 -24 0
-31 10 -93 158 -37 86 -68 168 -68 182 -2 24 0 25 148 46 188 27 181 26 193
12z m1432 4 c0 -5 -14 -30 -31 -55 -70 -106 -178 -167 -270 -153 -54 8 -134
48 -134 66 0 8 73 38 200 81 199 67 235 76 235 61z m1235 -60 c134 -46 201
-72 203 -83 5 -26 -91 -64 -162 -63 -69 0 -106 16 -167 71 -43 39 -99 114 -99
132 0 17 12 14 225 -57z m1425 39 c115 -15 125 -18 123 -37 -4 -37 -130 -328
-147 -339 -18 -11 -320 45 -339 64 -7 7 3 39 33 103 24 51 58 126 77 167 l33
73 48 -7 c26 -4 103 -15 172 -24z m-2445 -133 c-44 -302 -134 -690 -221 -948
-165 -493 -376 -728 -609 -680 -108 22 -190 74 -311 194 -208 208 -406 524
-626 996 -52 112 -64 148 -55 156 15 14 324 77 343 70 7 -3 27 -33 45 -67 114
-226 293 -485 424 -614 128 -126 228 -177 347 -178 250 -1 451 319 612 978 53
215 54 220 62 212 3 -3 -2 -56 -11 -119z m630 -103 c147 -604 332 -921 564
-965 118 -22 238 29 377 163 143 137 281 330 424 595 32 60 61 102 70 102 8 0
87 -15 175 -33 137 -29 160 -36 163 -53 4 -26 -248 -528 -347 -692 -210 -348
-418 -568 -594 -629 -305 -104 -558 218 -751 957 -80 307 -178 859 -136 765 5
-11 30 -105 55 -210z"/>
</g>
</svg>
